<svg width="42" height="42" viewBox="0 0 42 42" fill="none" xmlns="http://www.w3.org/2000/svg">
<circle cx="21" cy="21" r="20.5" fill="#EB5757" stroke="white"/>
<path d="M23 28H28V14H14V28H21V23H19V21H21V19.346C21 18.009 21.14 17.524 21.4 17.035C21.6561 16.5512 22.052 16.1557 22.536 15.9C22.918 15.695 23.393 15.572 24.223 15.519C24.552 15.498 24.978 15.524 25.501 15.599V17.499H25C24.083 17.499 23.704 17.542 23.478 17.663C23.3431 17.7324 23.2334 17.8421 23.164 17.977C23.044 18.203 23 18.427 23 19.345V21H25.5L25 23H23V28ZM13 12H29C29.2652 12 29.5196 12.1054 29.7071 12.2929C29.8946 12.4804 30 12.7348 30 13V29C30 29.2652 29.8946 29.5196 29.7071 29.7071C29.5196 29.8946 29.2652 30 29 30H13C12.7348 30 12.4804 29.8946 12.2929 29.7071C12.1054 29.5196 12 29.2652 12 29V13C12 12.7348 12.1054 12.4804 12.2929 12.2929C12.4804 12.1054 12.7348 12 13 12Z" fill="white"/>
</svg>
