<svg width="42" height="64" viewBox="0 0 42 64" fill="none" xmlns="http://www.w3.org/2000/svg">
<circle cx="21" cy="32" r="20.5" fill="#EB5757" stroke="white"/>
<path d="M21 29C20.2044 29 19.4413 29.3161 18.8787 29.8787C18.3161 30.4413 18 31.2044 18 32C18 32.7956 18.3161 33.5587 18.8787 34.1213C19.4413 34.6839 20.2044 35 21 35C21.7956 35 22.5587 34.6839 23.1213 34.1213C23.6839 33.5587 24 32.7956 24 32C24 31.2044 23.6839 30.4413 23.1213 29.8787C22.5587 29.3161 21.7956 29 21 29ZM21 27C22.3261 27 23.5979 27.5268 24.5355 28.4645C25.4732 29.4021 26 30.6739 26 32C26 33.3261 25.4732 34.5979 24.5355 35.5355C23.5979 36.4732 22.3261 37 21 37C19.6739 37 18.4021 36.4732 17.4645 35.5355C16.5268 34.5979 16 33.3261 16 32C16 30.6739 16.5268 29.4021 17.4645 28.4645C18.4021 27.5268 19.6739 27 21 27ZM27.5 26.75C27.5 27.0815 27.3683 27.3995 27.1339 27.6339C26.8995 27.8683 26.5815 28 26.25 28C25.9185 28 25.6005 27.8683 25.3661 27.6339C25.1317 27.3995 25 27.0815 25 26.75C25 26.4185 25.1317 26.1005 25.3661 25.8661C25.6005 25.6317 25.9185 25.5 26.25 25.5C26.5815 25.5 26.8995 25.6317 27.1339 25.8661C27.3683 26.1005 27.5 26.4185 27.5 26.75ZM21 24C18.526 24 18.122 24.007 16.971 24.058C16.187 24.095 15.661 24.2 15.173 24.39C14.7646 24.5399 14.3954 24.7803 14.093 25.093C13.78 25.3954 13.5394 25.7646 13.389 26.173C13.199 26.663 13.094 27.188 13.058 27.971C13.006 29.075 13 29.461 13 32C13 34.474 13.007 34.878 13.058 36.029C13.095 36.812 13.2 37.339 13.389 37.826C13.559 38.261 13.759 38.574 14.091 38.906C14.428 39.242 14.741 39.443 15.171 39.609C15.665 39.8 16.191 39.906 16.971 39.942C18.075 39.994 18.461 40 21 40C23.474 40 23.878 39.993 25.029 39.942C25.811 39.905 26.338 39.8 26.826 39.611C27.2338 39.4603 27.6027 39.2205 27.906 38.909C28.243 38.572 28.444 38.259 28.61 37.829C28.8 37.336 28.906 36.809 28.942 36.029C28.994 34.925 29 34.539 29 32C29 29.526 28.993 29.122 28.942 27.971C28.905 27.189 28.8 26.661 28.61 26.173C28.4593 25.765 28.2191 25.396 27.907 25.093C27.6047 24.7798 27.2355 24.5392 26.827 24.389C26.337 24.199 25.811 24.094 25.029 24.058C23.925 24.006 23.539 24 21 24ZM21 22C23.717 22 24.056 22.01 25.122 22.06C26.187 22.11 26.912 22.277 27.55 22.525C28.21 22.779 28.766 23.123 29.322 23.678C29.8305 24.1779 30.224 24.7826 30.475 25.45C30.722 26.087 30.89 26.813 30.94 27.878C30.987 28.944 31 29.283 31 32C31 34.717 30.99 35.056 30.94 36.122C30.89 37.187 30.722 37.912 30.475 38.55C30.2247 39.2178 29.8311 39.8226 29.322 40.322C28.822 40.8303 28.2173 41.2238 27.55 41.475C26.913 41.722 26.187 41.89 25.122 41.94C24.056 41.987 23.717 42 21 42C18.283 42 17.944 41.99 16.878 41.94C15.813 41.89 15.088 41.722 14.45 41.475C13.7823 41.2245 13.1775 40.8309 12.678 40.322C12.1694 39.8222 11.7759 39.2175 11.525 38.55C11.277 37.913 11.11 37.187 11.06 36.122C11.013 35.056 11 34.717 11 32C11 29.283 11.01 28.944 11.06 27.878C11.11 26.812 11.277 26.088 11.525 25.45C11.7752 24.7822 12.1688 24.1773 12.678 23.678C13.1777 23.1692 13.7824 22.7757 14.45 22.525C15.088 22.277 15.812 22.11 16.878 22.06C17.944 22.013 18.283 22 21 22Z" fill="white"/>
</svg>
