<svg width="124" height="18" viewBox="0 0 124 18" fill="none" xmlns="http://www.w3.org/2000/svg">
<path d="M3.741 3.448V8.156H9.703V10.521H3.741V17H0.771V1.094H10.803V3.448H3.741ZM19.0857 10.059C19.0857 9.707 19.0343 9.377 18.9317 9.069C18.8363 8.75367 18.6897 8.47867 18.4917 8.244C18.2937 8.00933 18.0407 7.826 17.7327 7.694C17.432 7.55467 17.08 7.485 16.6767 7.485C15.892 7.485 15.2723 7.70867 14.8177 8.156C14.3703 8.60333 14.0843 9.23767 13.9597 10.059H19.0857ZM13.9047 11.698C13.9487 12.2773 14.0513 12.7797 14.2127 13.205C14.374 13.623 14.5867 13.9713 14.8507 14.25C15.1147 14.5213 15.4263 14.7267 15.7857 14.866C16.1523 14.998 16.5557 15.064 16.9957 15.064C17.4357 15.064 17.8133 15.0127 18.1287 14.91C18.4513 14.8073 18.73 14.6937 18.9647 14.569C19.2067 14.4443 19.4157 14.3307 19.5917 14.228C19.775 14.1253 19.951 14.074 20.1197 14.074C20.347 14.074 20.5157 14.1583 20.6257 14.327L21.4067 15.317C21.106 15.669 20.7687 15.966 20.3947 16.208C20.0207 16.4427 19.6283 16.6333 19.2177 16.78C18.8143 16.9193 18.4 17.0183 17.9747 17.077C17.5567 17.1357 17.1497 17.165 16.7537 17.165C15.969 17.165 15.2393 17.0367 14.5647 16.78C13.89 16.516 13.3033 16.131 12.8047 15.625C12.306 15.1117 11.9137 14.481 11.6277 13.733C11.3417 12.9777 11.1987 12.105 11.1987 11.115C11.1987 10.345 11.3233 9.62267 11.5727 8.948C11.822 8.266 12.1777 7.67567 12.6397 7.177C13.109 6.671 13.6773 6.27133 14.3447 5.978C15.0193 5.68467 15.7783 5.538 16.6217 5.538C17.333 5.538 17.9893 5.65167 18.5907 5.879C19.192 6.10633 19.709 6.44 20.1417 6.88C20.5743 7.31267 20.9117 7.848 21.1537 8.486C21.403 9.11667 21.5277 9.839 21.5277 10.653C21.5277 11.0637 21.4837 11.3423 21.3957 11.489C21.3077 11.6283 21.139 11.698 20.8897 11.698H13.9047ZM30.4526 7.914C30.3793 8.03133 30.3023 8.11567 30.2216 8.167C30.1409 8.211 30.0383 8.233 29.9136 8.233C29.7816 8.233 29.6386 8.19633 29.4846 8.123C29.3379 8.04967 29.1656 7.969 28.9676 7.881C28.7696 7.78567 28.5423 7.70133 28.2856 7.628C28.0363 7.55467 27.7393 7.518 27.3946 7.518C26.8593 7.518 26.4376 7.63167 26.1296 7.859C25.8289 8.08633 25.6786 8.38333 25.6786 8.75C25.6786 8.992 25.7556 9.19733 25.9096 9.366C26.0709 9.52733 26.2799 9.67033 26.5366 9.795C26.8006 9.91967 27.0976 10.0333 27.4276 10.136C27.7576 10.2313 28.0913 10.3377 28.4286 10.455C28.7733 10.5723 29.1106 10.708 29.4406 10.862C29.7706 11.0087 30.0639 11.1993 30.3206 11.434C30.5846 11.6613 30.7936 11.9363 30.9476 12.259C31.1089 12.5817 31.1896 12.9703 31.1896 13.425C31.1896 13.9677 31.0906 14.47 30.8926 14.932C30.7019 15.3867 30.4159 15.7827 30.0346 16.12C29.6533 16.45 29.1803 16.7103 28.6156 16.901C28.0583 17.0843 27.4129 17.176 26.6796 17.176C26.2909 17.176 25.9096 17.1393 25.5356 17.066C25.1689 17 24.8133 16.9047 24.4686 16.78C24.1313 16.6553 23.8159 16.5087 23.5226 16.34C23.2366 16.1713 22.9836 15.988 22.7636 15.79L23.3906 14.756C23.4713 14.6313 23.5666 14.536 23.6766 14.47C23.7866 14.404 23.9259 14.371 24.0946 14.371C24.2633 14.371 24.4209 14.4187 24.5676 14.514C24.7216 14.6093 24.8976 14.712 25.0956 14.822C25.2936 14.932 25.5246 15.0347 25.7886 15.13C26.0599 15.2253 26.4009 15.273 26.8116 15.273C27.1343 15.273 27.4093 15.2363 27.6366 15.163C27.8713 15.0823 28.0619 14.9797 28.2086 14.855C28.3626 14.7303 28.4726 14.5873 28.5386 14.426C28.6119 14.2573 28.6486 14.085 28.6486 13.909C28.6486 13.645 28.5679 13.4287 28.4066 13.26C28.2526 13.0913 28.0436 12.9447 27.7796 12.82C27.5229 12.6953 27.2259 12.5853 26.8886 12.49C26.5586 12.3873 26.2176 12.2773 25.8656 12.16C25.5209 12.0427 25.1799 11.907 24.8426 11.753C24.5126 11.5917 24.2156 11.39 23.9516 11.148C23.6949 10.906 23.4859 10.609 23.3246 10.257C23.1706 9.905 23.0936 9.47967 23.0936 8.981C23.0936 8.519 23.1853 8.079 23.3686 7.661C23.5519 7.243 23.8196 6.88 24.1716 6.572C24.5309 6.25667 24.9746 6.00733 25.5026 5.824C26.0379 5.63333 26.6539 5.538 27.3506 5.538C28.1279 5.538 28.8356 5.66633 29.4736 5.923C30.1116 6.17967 30.6433 6.517 31.0686 6.935L30.4526 7.914ZM44.6196 17H41.9026V7.749H36.6666V13.865C36.6666 14.217 36.7509 14.492 36.9196 14.69C37.0956 14.888 37.3339 14.987 37.6346 14.987C37.8032 14.987 37.9426 14.9687 38.0526 14.932C38.1699 14.888 38.2689 14.844 38.3496 14.8C38.4376 14.756 38.5146 14.7157 38.5806 14.679C38.6466 14.635 38.7126 14.613 38.7786 14.613C38.8592 14.613 38.9252 14.635 38.9766 14.679C39.0279 14.7157 39.0829 14.7743 39.1416 14.855L39.9556 16.175C39.5596 16.505 39.1049 16.7543 38.5916 16.923C38.0782 17.0917 37.5466 17.176 36.9966 17.176C36.0139 17.176 35.2586 16.901 34.7306 16.351C34.2099 15.7937 33.9496 15.0273 33.9496 14.052V7.749H32.7946C32.6479 7.749 32.5232 7.70133 32.4206 7.606C32.3179 7.51067 32.2666 7.36767 32.2666 7.177V6.099L34.0816 5.791L34.6536 2.722C34.6902 2.57533 34.7599 2.46167 34.8626 2.381C34.9652 2.30033 35.0972 2.26 35.2586 2.26H36.6666V5.813H44.6196V17ZM45.0926 2.381C45.0926 2.61567 45.0449 2.83933 44.9496 3.052C44.8542 3.25733 44.7259 3.437 44.5646 3.591C44.4106 3.745 44.2236 3.86967 44.0036 3.965C43.7909 4.053 43.5636 4.097 43.3216 4.097C43.0869 4.097 42.8669 4.053 42.6616 3.965C42.4562 3.86967 42.2766 3.745 42.1226 3.591C41.9686 3.437 41.8439 3.25733 41.7486 3.052C41.6606 2.83933 41.6166 2.61567 41.6166 2.381C41.6166 2.139 41.6606 1.91533 41.7486 1.71C41.8439 1.49733 41.9686 1.314 42.1226 1.16C42.2766 0.998666 42.4562 0.874 42.6616 0.785999C42.8669 0.690666 43.0869 0.642999 43.3216 0.642999C43.5636 0.642999 43.7909 0.690666 44.0036 0.785999C44.2236 0.874 44.4106 0.998666 44.5646 1.16C44.7259 1.314 44.8542 1.49733 44.9496 1.71C45.0449 1.91533 45.0926 2.139 45.0926 2.381ZM57.5678 5.714L53.0908 17H50.6268L46.1498 5.714H48.3938C48.5991 5.714 48.7678 5.76167 48.8998 5.857C49.0391 5.95233 49.1308 6.07333 49.1748 6.22L51.3528 12.248C51.4701 12.6 51.5728 12.9447 51.6608 13.282C51.7488 13.6193 51.8258 13.9567 51.8918 14.294C51.9651 13.9567 52.0458 13.6193 52.1338 13.282C52.2218 12.9447 52.3281 12.6 52.4528 12.248L54.6748 6.22C54.7261 6.07333 54.8178 5.95233 54.9498 5.857C55.0818 5.76167 55.2394 5.714 55.4228 5.714H57.5678ZM64.6985 12.182C63.9139 12.2187 63.2539 12.2883 62.7185 12.391C62.1832 12.4863 61.7542 12.611 61.4315 12.765C61.1089 12.919 60.8779 13.0987 60.7385 13.304C60.5992 13.5093 60.5295 13.733 60.5295 13.975C60.5295 14.4517 60.6689 14.7927 60.9475 14.998C61.2335 15.2033 61.6039 15.306 62.0585 15.306C62.6159 15.306 63.0962 15.207 63.4995 15.009C63.9102 14.8037 64.3099 14.4957 64.6985 14.085V12.182ZM58.4725 7.287C59.7705 6.099 61.3325 5.505 63.1585 5.505C63.8185 5.505 64.4089 5.615 64.9295 5.835C65.4502 6.04767 65.8902 6.34833 66.2495 6.737C66.6089 7.11833 66.8802 7.57667 67.0635 8.112C67.2542 8.64733 67.3495 9.234 67.3495 9.872V17H66.1175C65.8609 17 65.6629 16.9633 65.5235 16.89C65.3842 16.8093 65.2742 16.6517 65.1935 16.417L64.9515 15.603C64.6655 15.8597 64.3869 16.087 64.1155 16.285C63.8442 16.4757 63.5619 16.637 63.2685 16.769C62.9752 16.901 62.6599 17 62.3225 17.066C61.9925 17.1393 61.6259 17.176 61.2225 17.176C60.7459 17.176 60.3059 17.1137 59.9025 16.989C59.4992 16.857 59.1509 16.6627 58.8575 16.406C58.5642 16.1493 58.3369 15.8303 58.1755 15.449C58.0142 15.0677 57.9335 14.624 57.9335 14.118C57.9335 13.832 57.9812 13.5497 58.0765 13.271C58.1719 12.985 58.3259 12.7137 58.5385 12.457C58.7585 12.2003 59.0409 11.9583 59.3855 11.731C59.7302 11.5037 60.1519 11.3057 60.6505 11.137C61.1565 10.9683 61.7432 10.8327 62.4105 10.73C63.0779 10.62 63.8405 10.554 64.6985 10.532V9.872C64.6985 9.11667 64.5372 8.55933 64.2145 8.2C63.8919 7.83333 63.4262 7.65 62.8175 7.65C62.3775 7.65 62.0109 7.70133 61.7175 7.804C61.4315 7.90667 61.1785 8.024 60.9585 8.156C60.7385 8.28067 60.5369 8.39433 60.3535 8.497C60.1775 8.59967 59.9795 8.651 59.7595 8.651C59.5689 8.651 59.4075 8.60333 59.2755 8.508C59.1435 8.40533 59.0372 8.288 58.9565 8.156L58.4725 7.287ZM72.6584 0.653999V17H69.9414V0.653999H72.6584Z" fill="#222222"/>
<path d="M89.548 10.994L87.612 5.703C87.5167 5.46833 87.4177 5.18967 87.315 4.867C87.2124 4.54433 87.1097 4.196 87.007 3.822C86.9117 4.196 86.8127 4.548 86.71 4.878C86.6074 5.20067 86.5084 5.483 86.413 5.725L84.488 10.994H89.548ZM94.773 17H92.485C92.2284 17 92.0194 16.9377 91.858 16.813C91.6967 16.681 91.5757 16.5197 91.495 16.329L90.307 13.084H83.718L82.53 16.329C82.4714 16.4977 82.3577 16.6517 82.189 16.791C82.0204 16.9303 81.8114 17 81.562 17H79.252L85.511 1.094H88.525L94.773 17ZM102.37 14.69C102.92 14.69 103.382 14.624 103.756 14.492C104.13 14.36 104.427 14.184 104.647 13.964C104.875 13.744 105.036 13.4873 105.131 13.194C105.234 12.9007 105.285 12.589 105.285 12.259C105.285 11.9143 105.23 11.6063 105.12 11.335C105.01 11.0563 104.838 10.8217 104.603 10.631C104.369 10.433 104.064 10.2827 103.69 10.18C103.324 10.0773 102.88 10.026 102.359 10.026H99.3784V14.69H102.37ZM99.3784 3.382V7.98H101.732C102.744 7.98 103.507 7.79667 104.02 7.43C104.541 7.06333 104.801 6.48033 104.801 5.681C104.801 4.85233 104.567 4.262 104.097 3.91C103.628 3.558 102.895 3.382 101.897 3.382H99.3784ZM101.897 1.094C102.939 1.094 103.83 1.193 104.57 1.391C105.311 1.589 105.916 1.87133 106.385 2.238C106.862 2.60467 107.21 3.04833 107.43 3.569C107.65 4.08967 107.76 4.67633 107.76 5.329C107.76 5.703 107.705 6.06233 107.595 6.407C107.485 6.74433 107.313 7.06333 107.078 7.364C106.851 7.65733 106.558 7.925 106.198 8.167C105.846 8.409 105.425 8.61433 104.933 8.783C107.119 9.27433 108.211 10.455 108.211 12.325C108.211 12.9997 108.083 13.623 107.826 14.195C107.57 14.767 107.196 15.262 106.704 15.68C106.213 16.0907 105.608 16.4133 104.889 16.648C104.171 16.8827 103.349 17 102.425 17H96.4194V1.094H101.897ZM121.823 13.249C121.984 13.249 122.127 13.3113 122.252 13.436L123.418 14.701C122.773 15.5003 121.977 16.1127 121.031 16.538C120.092 16.9633 118.963 17.176 117.643 17.176C116.462 17.176 115.399 16.9743 114.453 16.571C113.514 16.1677 112.711 15.6067 112.044 14.888C111.377 14.1693 110.863 13.3113 110.504 12.314C110.152 11.3167 109.976 10.2277 109.976 9.047C109.976 7.85167 110.167 6.759 110.548 5.769C110.929 4.77167 111.465 3.91367 112.154 3.195C112.851 2.47633 113.679 1.919 114.64 1.523C115.601 1.11967 116.664 0.918 117.83 0.918C118.989 0.918 120.015 1.10867 120.91 1.49C121.812 1.87133 122.578 2.37 123.209 2.986L122.219 4.361C122.16 4.449 122.083 4.526 121.988 4.592C121.9 4.658 121.775 4.691 121.614 4.691C121.504 4.691 121.39 4.66167 121.273 4.603C121.156 4.537 121.027 4.46 120.888 4.372C120.749 4.27667 120.587 4.174 120.404 4.064C120.221 3.954 120.008 3.855 119.766 3.767C119.524 3.67167 119.242 3.59467 118.919 3.536C118.604 3.47 118.237 3.437 117.819 3.437C117.108 3.437 116.455 3.56533 115.861 3.822C115.274 4.07133 114.768 4.438 114.343 4.922C113.918 5.39867 113.588 5.98533 113.353 6.682C113.118 7.37133 113.001 8.15967 113.001 9.047C113.001 9.94167 113.126 10.7373 113.375 11.434C113.632 12.1307 113.976 12.7173 114.409 13.194C114.842 13.6707 115.351 14.0373 115.938 14.294C116.525 14.5433 117.155 14.668 117.83 14.668C118.233 14.668 118.596 14.646 118.919 14.602C119.249 14.558 119.55 14.4883 119.821 14.393C120.1 14.2977 120.36 14.1767 120.602 14.03C120.851 13.876 121.097 13.689 121.339 13.469C121.412 13.403 121.489 13.3517 121.57 13.315C121.651 13.271 121.735 13.249 121.823 13.249Z" fill="#EB5757"/>
</svg>
