<svg width="60" height="60" viewBox="0 0 60 60" fill="none" xmlns="http://www.w3.org/2000/svg">
<g clip-path="url(#clip0_3812_263)">
<path d="M30.0001 5.5138e-05C26.8086 -0.149627 23.6211 0.368699 20.6415 1.52185C17.6619 2.67501 14.9559 4.43758 12.6968 6.69675C10.4376 8.95592 8.67501 11.6619 7.52185 14.6415C6.3687 17.6211 5.85037 20.8086 6.00006 24.0001C6.00006 31.5601 12.0001 39.0001 15.0001 42.0001C18.0001 45.0001 30.0001 60.0001 30.0001 60.0001C30.0001 60.0001 42.0001 45.0001 45.0001 42.0001C48.0001 39.0001 54.0001 31.5601 54.0001 24.0001C54.1497 20.8086 53.6314 17.6211 52.4783 14.6415C51.3251 11.6619 49.5625 8.95592 47.3034 6.69675C45.0442 4.43758 42.3382 2.67501 39.3586 1.52185C36.379 0.368699 33.1915 -0.149627 30.0001 5.5138e-05ZM30.0001 33.7501C28.0717 33.7501 26.1866 33.1782 24.5832 32.1069C22.9799 31.0355 21.7302 29.5128 20.9922 27.7312C20.2543 25.9496 20.0612 23.9892 20.4374 22.0979C20.8136 20.2066 21.7422 18.4693 23.1058 17.1058C24.4693 15.7422 26.2066 14.8136 28.0979 14.4374C29.9892 14.0612 31.9496 14.2543 33.7312 14.9922C35.5128 15.7302 37.0355 16.9799 38.1069 18.5832C39.1782 20.1866 39.7501 22.0717 39.7501 24.0001C39.7501 25.2804 39.4979 26.5483 39.0079 27.7312C38.5179 28.9141 37.7997 29.989 36.8943 30.8943C35.989 31.7997 34.9141 32.5179 33.7312 33.0079C32.5483 33.4979 31.2804 33.7501 30.0001 33.7501Z" fill="#EB5757"/>
</g>
<defs>
<clipPath id="clip0_3812_263">
<rect width="60" height="60" fill="white"/>
</clipPath>
</defs>
</svg>
