<svg width="42" height="42" viewBox="0 0 42 42" fill="none" xmlns="http://www.w3.org/2000/svg">
<circle cx="21" cy="21" r="20.5" fill="#EB5757" stroke="white"/>
<path d="M28.606 15.995C28.53 15.697 28.314 15.472 28.067 15.403C27.63 15.28 25.5 15 21 15C16.5 15 14.372 15.28 13.931 15.403C13.687 15.471 13.471 15.696 13.394 15.995C13.285 16.419 13 18.196 13 21C13 23.804 13.285 25.58 13.394 26.006C13.47 26.303 13.686 26.528 13.932 26.596C14.372 26.72 16.5 27 21 27C25.5 27 27.629 26.72 28.069 26.597C28.313 26.529 28.529 26.304 28.606 26.005C28.715 25.581 29 23.8 29 21C29 18.2 28.715 16.42 28.606 15.995ZM30.543 15.498C31 17.28 31 21 31 21C31 21 31 24.72 30.543 26.502C30.289 27.487 29.546 28.262 28.605 28.524C26.896 29 21 29 21 29C21 29 15.107 29 13.395 28.524C12.45 28.258 11.708 27.484 11.457 26.502C11 24.72 11 21 11 21C11 21 11 17.28 11.457 15.498C11.711 14.513 12.454 13.738 13.395 13.476C15.107 13 21 13 21 13C21 13 26.896 13 28.605 13.476C29.55 13.742 30.292 14.516 30.543 15.498ZM19 24.5V17.5L25 21L19 24.5Z" fill="white"/>
</svg>
