<svg width="32" height="32" viewBox="0 0 32 32" fill="none" xmlns="http://www.w3.org/2000/svg">
<g clip-path="url(#clip0_691_24)">
<path d="M17.3181 12.5813L13.6819 14.9187M13.6819 17.0813L17.3181 19.4187M14 16C14 17.1046 13.1046 18 12 18C10.8954 18 10 17.1046 10 16C10 14.8954 10.8954 14 12 14C13.1046 14 14 14.8954 14 16ZM21 20.5C21 21.6046 20.1046 22.5 19 22.5C17.8954 22.5 17 21.6046 17 20.5C17 19.3954 17.8954 18.5 19 18.5C20.1046 18.5 21 19.3954 21 20.5ZM21 11.5C21 12.6046 20.1046 13.5 19 13.5C17.8954 13.5 17 12.6046 17 11.5C17 10.3954 17.8954 9.5 19 9.5C20.1046 9.5 21 10.3954 21 11.5Z" stroke="#959393" stroke-linecap="round" stroke-linejoin="round"/>
</g>
<rect x="0.5" y="0.5" width="31" height="31" rx="15.5" stroke="#959393"/>
<defs>
<clipPath id="clip0_691_24">
<rect width="16" height="16" fill="white" transform="translate(8 8)"/>
</clipPath>
</defs>
</svg>
