<svg width="58" height="58" viewBox="0 0 58 58" fill="none" xmlns="http://www.w3.org/2000/svg">
<circle cx="29" cy="29" r="28" stroke="white" stroke-width="2"/>
<g clip-path="url(#clip0_1_7)">
<path d="M37 29L29 43L21 29" stroke="white" stroke-width="2" stroke-linecap="round" stroke-linejoin="round"/>
<path d="M20 24C20 21.6131 20.9482 19.3239 22.636 17.636C24.3239 15.9482 26.6131 15 29 15C31.3869 15 33.6761 15.9482 35.364 17.636C37.0518 19.3239 38 21.6131 38 24V25C38.5304 25 39.0391 25.2107 39.4142 25.5858C39.7893 25.9609 40 26.4696 40 27C40 27.5304 39.7893 28.0391 39.4142 28.4142C39.0391 28.7893 38.5304 29 38 29H20C19.4696 29 18.9609 28.7893 18.5858 28.4142C18.2107 28.0391 18 27.5304 18 27C18 26.4696 18.2107 25.9609 18.5858 25.5858C18.9609 25.2107 19.4696 25 20 25V24Z" stroke="white" stroke-width="2" stroke-linecap="round" stroke-linejoin="round"/>
<path d="M31.3575 38.875L25.7137 29" stroke="white" stroke-width="2" stroke-linecap="round" stroke-linejoin="round"/>
<path d="M33.7137 34.75L30.4287 29" stroke="white" stroke-width="2" stroke-linecap="round" stroke-linejoin="round"/>
</g>
<defs>
<clipPath id="clip0_1_7">
<rect width="32" height="32" fill="white" transform="translate(13 13)"/>
</clipPath>
</defs>
</svg>
