<?xml version="1.0" ?>

<!-- Uploaded to: SVG Repo, www.svgrepo.com, Generator: SVG Repo Mixer Tools -->
<svg width="140px" height="140px" viewBox="0 0 300 300" id="monkey" version="1.1" xml:space="preserve" xmlns="http://www.w3.org/2000/svg" xmlns:xlink="http://www.w3.org/1999/xlink">

<g>

<path d="   M242.783,96.201c13.64-7.82,24.959-13.71,10.438-38.684c-14.521-24.974-25.317-18.185-38.957-10.365   c-13.64,7.82-18.314,25.139-10.439,38.684C211.701,99.381,229.143,104.021,242.783,96.201z" style="fill-rule:evenodd;clip-rule:evenodd;fill:#8C6B3B;stroke:#000000;stroke-width:8;stroke-linecap:round;stroke-linejoin:round;stroke-miterlimit:10;"/>

<circle cx="230" cy="70" r="14" style="fill-rule:evenodd;clip-rule:evenodd;fill:#595959;stroke:#000000;stroke-width:8;stroke-linecap:round;stroke-linejoin:round;stroke-miterlimit:10;"/>

<path d="   M65.217,96.201c-13.64-7.82-24.959-13.71-10.438-38.684C69.3,32.544,80.096,39.332,93.736,47.152   c13.64,7.82,18.314,25.139,10.439,38.684C96.299,99.381,78.857,104.021,65.217,96.201z" style="fill-rule:evenodd;clip-rule:evenodd;fill:#8C6B3B;stroke:#000000;stroke-width:8;stroke-linecap:round;stroke-linejoin:round;stroke-miterlimit:10;"/>

<circle cx="78" cy="70" r="14" style="fill-rule:evenodd;clip-rule:evenodd;fill:#595959;stroke:#000000;stroke-width:8;stroke-linecap:round;stroke-linejoin:round;stroke-miterlimit:10;"/>

<path d="   M60,120.082C60,113.41,65.336,108,72.01,108H239.99c6.633,0,12.01,5.395,12.01,12.038v108.536   c0,19.967-16.122,36.491-36.001,36.907l-119.998,2.512C76.118,268.408,60,252.522,60,232.571V120.082z" style="fill-rule:evenodd;clip-rule:evenodd;fill:#997843;stroke:#000000;stroke-width:8;stroke-linecap:round;stroke-linejoin:round;stroke-miterlimit:10;"/>

<circle cx="156" cy="120" r="76" style="fill-rule:evenodd;clip-rule:evenodd;fill:#8C6B3B;stroke:#000000;stroke-width:8;stroke-linecap:round;stroke-linejoin:round;stroke-miterlimit:10;"/>

<path d="   M127.972,160.587C118.192,176.316,112,196.833,112,210.585C112,235.667,132.595,256,158,256s46-20.333,46-45.415   c0-13.924-6.347-34.783-16.341-50.585" style="fill-rule:evenodd;clip-rule:evenodd;fill:#8C6B3B;stroke:#000000;stroke-width:8;stroke-linecap:round;stroke-linejoin:round;stroke-miterlimit:10;"/>

<circle cx="130" cy="130" r="10" style="fill-rule:evenodd;clip-rule:evenodd;fill:none;stroke:#000000;stroke-width:8;stroke-linecap:round;stroke-linejoin:round;stroke-miterlimit:10;"/>

<circle cx="182" cy="130" r="10" style="fill-rule:evenodd;clip-rule:evenodd;fill:none;stroke:#000000;stroke-width:8;stroke-linecap:round;stroke-linejoin:round;stroke-miterlimit:10;"/>

<path d="   M161.125,201.534c-2.829,3.296-7.43,3.281-10.246,0l-13.365-15.566c-2.829-3.296-1.574-5.967,2.781-5.967h31.415   c4.365,0,5.597,2.687,2.781,5.967L161.125,201.534z" style="fill-rule:evenodd;clip-rule:evenodd;fill:#595959;stroke:#000000;stroke-width:8;stroke-linecap:round;stroke-linejoin:round;stroke-miterlimit:10;"/>

<path d="   M120,215.891c3.635,4.92,9.469,8.109,16.046,8.109c11.02,0,19.954-8.954,19.954-20" style="fill:none;stroke:#000000;stroke-width:8;stroke-linecap:round;stroke-linejoin:round;stroke-miterlimit:10;"/>

<path d="   M192,215.891c-3.635,4.92-9.469,8.109-16.046,8.109c-11.02,0-19.954-8.954-19.954-20" style="fill:none;stroke:#000000;stroke-width:8;stroke-linecap:round;stroke-linejoin:round;stroke-miterlimit:10;"/>

</g>

<g/>

<g/>

<g/>

<g/>

<g/>

<g/>

<g/>

<g/>

<g/>

<g/>

<g/>

<g/>

<g/>

<g/>

<g/>

</svg>