<?xml version="1.0" ?>

<!-- Uploaded to: SVG Repo, www.svgrepo.com, Generator: SVG Repo Mixer Tools -->
<svg width="140px" height="140px" viewBox="0 0 300 300" id="mouse" version="1.1" xml:space="preserve" xmlns="http://www.w3.org/2000/svg" xmlns:xlink="http://www.w3.org/1999/xlink">

<g>

<path d="   M182,259.363c0,0,90.214-5.169,68.678,4.621c-21.535,9.789-7.799,10.016-7.799,10.016" style="fill:none;stroke:#000000;stroke-width:8;stroke-linecap:round;stroke-linejoin:round;stroke-miterlimit:10;"/>

<path d="   M154,274c24.3,0,44-9.908,44-32s-19.7-72-44-72s-44,49.908-44,72S129.7,274,154,274z" style="fill-rule:evenodd;clip-rule:evenodd;fill:#777777;stroke:#000000;stroke-width:8;stroke-linecap:round;stroke-linejoin:round;stroke-miterlimit:10;"/>

<path d="   M262.936,94.464c19.043-17.253,9.881-36.634-0.556-48.297c-10.437-11.664-26.266-19.312-45.309-2.058s-34.089,52.872-23.652,64.536   C203.857,120.308,243.893,111.718,262.936,94.464z" style="fill-rule:evenodd;clip-rule:evenodd;fill:#777777;stroke:#000000;stroke-width:8;stroke-linecap:round;stroke-linejoin:round;stroke-miterlimit:10;"/>

<path d="   M45.064,94.464c-19.043-17.253-9.881-36.634,0.556-48.297s26.266-19.312,45.309-2.058s34.089,52.872,23.652,64.536   C104.144,120.308,64.107,111.718,45.064,94.464z" style="fill-rule:evenodd;clip-rule:evenodd;fill:#777777;stroke:#000000;stroke-width:8;stroke-linecap:round;stroke-linejoin:round;stroke-miterlimit:10;"/>

<ellipse cx="154" cy="142" rx="64" ry="60" style="fill-rule:evenodd;clip-rule:evenodd;fill:#595959;stroke:#000000;stroke-width:8;stroke-linecap:round;stroke-linejoin:round;stroke-miterlimit:10;"/>

<path d="   M138,162.381c0,0-44.581-4.79-68,19.619" style="fill:none;stroke:#000000;stroke-width:8;stroke-linecap:round;stroke-linejoin:round;stroke-miterlimit:10;"/>

<path d="   M134,174c0,0-44.088,0.651-64,28" style="fill:none;stroke:#000000;stroke-width:8;stroke-linecap:round;stroke-linejoin:round;stroke-miterlimit:10;"/>

<path d="   M170,162.381c0,0,44.581-4.79,68,19.619" style="fill:none;stroke:#000000;stroke-width:8;stroke-linecap:round;stroke-linejoin:round;stroke-miterlimit:10;"/>

<path d="   M174,174c0,0,44.088,0.651,64,28" style="fill:none;stroke:#000000;stroke-width:8;stroke-linecap:round;stroke-linejoin:round;stroke-miterlimit:10;"/>

<path d="   M158.511,167.391c-2.493,3.473-6.527,3.485-9.029,0l-2.23-3.104c-2.493-3.473-1.143-6.287,2.984-6.287h7.521   c4.141,0,5.485,2.802,2.984,6.287L158.511,167.391z" style="fill-rule:evenodd;clip-rule:evenodd;fill:#595959;stroke:#000000;stroke-width:8;stroke-linecap:round;stroke-linejoin:round;stroke-miterlimit:10;"/>

<circle cx="130" cy="134" r="8" style="fill-rule:evenodd;clip-rule:evenodd;fill:#777777;stroke:#000000;stroke-width:8;stroke-linecap:round;stroke-linejoin:round;stroke-miterlimit:10;"/>

<circle cx="178" cy="134" r="8" style="fill-rule:evenodd;clip-rule:evenodd;fill:#777777;stroke:#000000;stroke-width:8;stroke-linecap:round;stroke-linejoin:round;stroke-miterlimit:10;"/>

</g>

<g/>

<g/>

<g/>

<g/>

<g/>

<g/>

<g/>

<g/>

<g/>

<g/>

<g/>

<g/>

<g/>

<g/>

<g/>

</svg>