<?xml version="1.0" ?>

<!-- Uploaded to: SVG Repo, www.svgrepo.com, Generator: SVG Repo Mixer Tools -->
<svg width="140px" height="140px" viewBox="0 0 300 300" id="butterflies" version="1.1" xml:space="preserve" xmlns="http://www.w3.org/2000/svg" xmlns:xlink="http://www.w3.org/1999/xlink">

<g>

<path d="   M100,80.591c0,0,24.126-31.23,38.144-30.581c14.019,0.65,10.061,44.132,6.358,48.744c-3.702,4.612-18.98,9.799-18.98,9.799   s11.659,4.718,11.659,14.9c0,10.182-10.364,21.673-22.793,8.9c-12.43-12.773-13.273-25.411-13.273-25.411" style="fill-rule:evenodd;clip-rule:evenodd;fill:#26BBEC;stroke:#000000;stroke-width:8;stroke-linecap:round;stroke-linejoin:round;stroke-miterlimit:10;"/>

<path d="   M100,80.591c0,0-24.126-31.23-38.144-30.581c-14.019,0.65-10.061,44.132-6.358,48.744c3.702,4.612,18.98,9.799,18.98,9.799   s-11.659,4.718-11.659,14.9c0,10.182,10.364,21.673,22.793,8.9c12.43-12.773,13.273-25.411,13.273-25.411" style="fill-rule:evenodd;clip-rule:evenodd;fill:#26BBEC;stroke:#000000;stroke-width:8;stroke-linecap:round;stroke-linejoin:round;stroke-miterlimit:10;"/>

<circle cx="100" cy="70" r="4" style="fill-rule:evenodd;clip-rule:evenodd;fill:#26BBEC;stroke:#000000;stroke-width:8;stroke-linecap:round;stroke-linejoin:round;stroke-miterlimit:10;"/>

<ellipse cx="100" cy="92" rx="4" ry="22" style="fill-rule:evenodd;clip-rule:evenodd;fill:#26BBEC;stroke:#000000;stroke-width:8;stroke-linecap:round;stroke-linejoin:round;stroke-miterlimit:10;"/>

<path d="   M220,144.591c0,0,24.126-31.23,38.144-30.581c14.019,0.65,10.061,44.132,6.358,48.744c-3.702,4.612-18.98,9.799-18.98,9.799   s11.659,4.718,11.659,14.9c0,10.182-10.364,21.673-22.793,8.9c-12.43-12.773-13.273-25.411-13.273-25.411" style="fill-rule:evenodd;clip-rule:evenodd;fill:#ED5481;stroke:#000000;stroke-width:8;stroke-linecap:round;stroke-linejoin:round;stroke-miterlimit:10;"/>

<path d="   M220,144.591c0,0-24.126-31.23-38.144-30.581c-14.019,0.65-10.061,44.132-6.358,48.744c3.702,4.612,18.98,9.799,18.98,9.799   s-11.659,4.718-11.659,14.9c0,10.182,10.364,21.673,22.793,8.9c12.43-12.773,13.273-25.411,13.273-25.411" style="fill-rule:evenodd;clip-rule:evenodd;fill:#ED5481;stroke:#000000;stroke-width:8;stroke-linecap:round;stroke-linejoin:round;stroke-miterlimit:10;"/>

<circle cx="220" cy="134" r="4" style="fill-rule:evenodd;clip-rule:evenodd;fill:#26BBEC;stroke:#000000;stroke-width:8;stroke-linecap:round;stroke-linejoin:round;stroke-miterlimit:10;"/>

<ellipse cx="220" cy="156" rx="4" ry="22" style="fill-rule:evenodd;clip-rule:evenodd;fill:#26BBEC;stroke:#000000;stroke-width:8;stroke-linecap:round;stroke-linejoin:round;stroke-miterlimit:10;"/>

<path d="   M88,200.591c0,0,24.126-31.23,38.144-30.581c14.019,0.65,10.061,44.132,6.358,48.744c-3.702,4.612-18.98,9.799-18.98,9.799   s11.659,4.718,11.659,14.9c0,10.182-10.364,21.673-22.793,8.9c-12.43-12.773-13.273-25.411-13.273-25.411" style="fill-rule:evenodd;clip-rule:evenodd;fill:#FBAD4A;stroke:#000000;stroke-width:8;stroke-linecap:round;stroke-linejoin:round;stroke-miterlimit:10;"/>

<path d="   M88,200.591c0,0-24.126-31.23-38.144-30.581c-14.019,0.65-10.061,44.132-6.358,48.744c3.702,4.612,18.98,9.799,18.98,9.799   s-11.659,4.718-11.659,14.9c0,10.182,10.364,21.673,22.793,8.9c12.43-12.773,13.273-25.411,13.273-25.411" style="fill-rule:evenodd;clip-rule:evenodd;fill:#FBAD4A;stroke:#000000;stroke-width:8;stroke-linecap:round;stroke-linejoin:round;stroke-miterlimit:10;"/>

<circle cx="88" cy="190" r="4" style="fill-rule:evenodd;clip-rule:evenodd;fill:#26BBEC;stroke:#000000;stroke-width:8;stroke-linecap:round;stroke-linejoin:round;stroke-miterlimit:10;"/>

<ellipse cx="88" cy="212" rx="4" ry="22" style="fill-rule:evenodd;clip-rule:evenodd;fill:#26BBEC;stroke:#000000;stroke-width:8;stroke-linecap:round;stroke-linejoin:round;stroke-miterlimit:10;"/>

</g>

<g/>

<g/>

<g/>

<g/>

<g/>

<g/>

<g/>

<g/>

<g/>

<g/>

<g/>

<g/>

<g/>

<g/>

<g/>

</svg>