<svg width="198" height="72" viewBox="0 0 198 72" fill="none" xmlns="http://www.w3.org/2000/svg">
<path d="M31.2 63.5V31.4167L19.6 39.0556V63.5M42.8 63.5V31.4167L54.4 39.0556V63.5M61.65 63.5H13.8H61.65Z" fill="#EFF1EC"/>
<path d="M31.2 63.5V31.4167L19.6 39.0556V63.5M42.8 63.5V31.4167L54.4 39.0556V63.5M61.65 63.5H13.8M37 8.5L66 28.3611V63.5H8V28.3611L37 8.5Z" stroke="#50C557" stroke-width="4" stroke-linecap="round" stroke-linejoin="round"/>
<path d="M80.1777 14.7363H83.2734L88.8203 20.3027L94.3672 14.7363H97.4629V30H94.3672V19.0234L88.8203 24.3652L83.2734 19.0234V30H80.1777V14.7363ZM100.9 26.3672C100.9 25.8138 101.021 25.3092 101.262 24.8535C101.503 24.3978 101.864 24.0072 102.346 23.6816C102.827 23.3496 103.426 23.0957 104.143 22.9199C104.865 22.7376 105.705 22.6465 106.662 22.6465C107.372 22.6465 108.117 22.6986 108.898 22.8027C109.686 22.9069 110.497 23.0664 111.33 23.2812C111.298 22.9167 111.187 22.5814 110.998 22.2754C110.809 21.9629 110.546 21.696 110.207 21.4746C109.875 21.2467 109.471 21.071 108.996 20.9473C108.527 20.8236 107.993 20.7617 107.395 20.7617C107.069 20.7617 106.711 20.7812 106.32 20.8203C105.93 20.8594 105.526 20.918 105.109 20.9961C104.693 21.0742 104.279 21.1719 103.869 21.2891C103.465 21.4062 103.088 21.5462 102.736 21.709L101.857 19.3359C102.294 19.1797 102.759 19.0365 103.254 18.9062C103.755 18.776 104.266 18.6654 104.787 18.5742C105.308 18.4766 105.829 18.4017 106.35 18.3496C106.87 18.2975 107.375 18.2715 107.863 18.2715C110.018 18.2715 111.62 18.8216 112.668 19.9219C113.716 21.0221 114.24 22.7083 114.24 24.9805V30H111.35V28.916C111.05 29.0918 110.721 29.2578 110.363 29.4141C110.012 29.5703 109.628 29.707 109.211 29.8242C108.794 29.9414 108.345 30.0326 107.863 30.0977C107.388 30.1693 106.883 30.2051 106.35 30.2051C105.451 30.2051 104.66 30.1074 103.977 29.9121C103.299 29.7168 102.733 29.4466 102.277 29.1016C101.822 28.7565 101.477 28.3529 101.242 27.8906C101.014 27.4219 100.9 26.9141 100.9 26.3672ZM103.947 26.2695C103.947 26.4583 103.996 26.6406 104.094 26.8164C104.191 26.9857 104.348 27.1387 104.562 27.2754C104.777 27.4056 105.051 27.513 105.383 27.5977C105.721 27.6758 106.128 27.7148 106.604 27.7148C107.111 27.7148 107.603 27.6693 108.078 27.5781C108.553 27.487 108.996 27.3665 109.406 27.2168C109.816 27.0671 110.188 26.8945 110.52 26.6992C110.852 26.5039 111.128 26.3021 111.35 26.0938V25.5859C110.907 25.4622 110.467 25.3581 110.031 25.2734C109.602 25.1888 109.188 25.1237 108.791 25.0781C108.4 25.026 108.029 24.9902 107.678 24.9707C107.333 24.9512 107.03 24.9414 106.77 24.9414C106.229 24.9414 105.78 24.9772 105.422 25.0488C105.064 25.1204 104.774 25.2181 104.553 25.3418C104.331 25.459 104.175 25.599 104.084 25.7617C103.993 25.9245 103.947 26.0938 103.947 26.2695ZM118.068 18.4766H120.959V19.4531C121.727 19.0169 122.46 18.7109 123.156 18.5352C123.859 18.3594 124.546 18.2715 125.217 18.2715C126.096 18.2715 126.91 18.4017 127.658 18.6621C128.407 18.916 129.055 19.2969 129.602 19.8047C130.148 20.3125 130.575 20.9473 130.881 21.709C131.193 22.4642 131.35 23.3398 131.35 24.3359V30H128.469V24.8047C128.469 24.1732 128.378 23.61 128.195 23.1152C128.02 22.6139 127.762 22.194 127.424 21.8555C127.092 21.5104 126.685 21.25 126.203 21.0742C125.728 20.8919 125.194 20.8008 124.602 20.8008C124.289 20.8008 123.967 20.8333 123.635 20.8984C123.309 20.9635 122.987 21.0579 122.668 21.1816C122.355 21.2988 122.053 21.4486 121.76 21.6309C121.467 21.8066 121.2 22.0085 120.959 22.2363V30H118.068V18.4766ZM134.357 26.3672C134.357 25.8138 134.478 25.3092 134.719 24.8535C134.96 24.3978 135.321 24.0072 135.803 23.6816C136.285 23.3496 136.883 23.0957 137.6 22.9199C138.322 22.7376 139.162 22.6465 140.119 22.6465C140.829 22.6465 141.574 22.6986 142.355 22.8027C143.143 22.9069 143.954 23.0664 144.787 23.2812C144.755 22.9167 144.644 22.5814 144.455 22.2754C144.266 21.9629 144.003 21.696 143.664 21.4746C143.332 21.2467 142.928 21.071 142.453 20.9473C141.984 20.8236 141.451 20.7617 140.852 20.7617C140.526 20.7617 140.168 20.7812 139.777 20.8203C139.387 20.8594 138.983 20.918 138.566 20.9961C138.15 21.0742 137.736 21.1719 137.326 21.2891C136.923 21.4062 136.545 21.5462 136.193 21.709L135.314 19.3359C135.751 19.1797 136.216 19.0365 136.711 18.9062C137.212 18.776 137.723 18.6654 138.244 18.5742C138.765 18.4766 139.286 18.4017 139.807 18.3496C140.327 18.2975 140.832 18.2715 141.32 18.2715C143.475 18.2715 145.077 18.8216 146.125 19.9219C147.173 21.0221 147.697 22.7083 147.697 24.9805V30H144.807V28.916C144.507 29.0918 144.178 29.2578 143.82 29.4141C143.469 29.5703 143.085 29.707 142.668 29.8242C142.251 29.9414 141.802 30.0326 141.32 30.0977C140.845 30.1693 140.34 30.2051 139.807 30.2051C138.908 30.2051 138.117 30.1074 137.434 29.9121C136.757 29.7168 136.19 29.4466 135.734 29.1016C135.279 28.7565 134.934 28.3529 134.699 27.8906C134.471 27.4219 134.357 26.9141 134.357 26.3672ZM137.404 26.2695C137.404 26.4583 137.453 26.6406 137.551 26.8164C137.648 26.9857 137.805 27.1387 138.02 27.2754C138.234 27.4056 138.508 27.513 138.84 27.5977C139.178 27.6758 139.585 27.7148 140.061 27.7148C140.568 27.7148 141.06 27.6693 141.535 27.5781C142.01 27.487 142.453 27.3665 142.863 27.2168C143.273 27.0671 143.645 26.8945 143.977 26.6992C144.309 26.5039 144.585 26.3021 144.807 26.0938V25.5859C144.364 25.4622 143.924 25.3581 143.488 25.2734C143.059 25.1888 142.645 25.1237 142.248 25.0781C141.857 25.026 141.486 24.9902 141.135 24.9707C140.79 24.9512 140.487 24.9414 140.227 24.9414C139.686 24.9414 139.237 24.9772 138.879 25.0488C138.521 25.1204 138.231 25.2181 138.01 25.3418C137.788 25.459 137.632 25.599 137.541 25.7617C137.45 25.9245 137.404 26.0938 137.404 26.2695ZM151.525 18.4668H154.406V24.0918C154.406 24.6257 154.465 25.1139 154.582 25.5566C154.699 25.9928 154.898 26.3672 155.178 26.6797C155.464 26.9922 155.842 27.2363 156.311 27.4121C156.786 27.5814 157.375 27.666 158.078 27.666C158.41 27.666 158.745 27.6302 159.084 27.5586C159.429 27.487 159.758 27.3893 160.07 27.2656C160.383 27.1354 160.673 26.9824 160.939 26.8066C161.213 26.6309 161.447 26.4388 161.643 26.2305V18.4668H164.533V30H161.643V29.0137C160.933 29.4368 160.22 29.7396 159.504 29.9219C158.788 30.1042 158.107 30.1953 157.463 30.1953C156.408 30.1953 155.503 30.0684 154.748 29.8145C153.999 29.5605 153.384 29.1927 152.902 28.7109C152.427 28.2227 152.079 27.627 151.857 26.9238C151.636 26.2142 151.525 25.4069 151.525 24.502V18.4668ZM168.664 26.4648C169.445 26.9336 170.305 27.2786 171.242 27.5C172.18 27.7214 173.14 27.832 174.123 27.832C174.787 27.832 175.34 27.7865 175.783 27.6953C176.226 27.6042 176.581 27.487 176.848 27.3438C177.115 27.2005 177.303 27.0378 177.414 26.8555C177.525 26.6732 177.58 26.4876 177.58 26.2988C177.58 26.0254 177.46 25.791 177.219 25.5957C176.984 25.4004 176.594 25.3027 176.047 25.3027C175.793 25.3027 175.52 25.319 175.227 25.3516C174.934 25.3841 174.624 25.4199 174.299 25.459C173.98 25.4915 173.645 25.5241 173.293 25.5566C172.948 25.5892 172.596 25.6055 172.238 25.6055C171.457 25.6055 170.79 25.5208 170.236 25.3516C169.689 25.1823 169.243 24.9512 168.898 24.6582C168.553 24.3652 168.303 24.0202 168.146 23.623C167.99 23.2194 167.912 22.7865 167.912 22.3242C167.912 21.7383 168.049 21.1979 168.322 20.7031C168.596 20.2083 168.986 19.7819 169.494 19.4238C170.002 19.0592 170.614 18.776 171.33 18.5742C172.053 18.3724 172.857 18.2715 173.742 18.2715C174.204 18.2715 174.686 18.3008 175.188 18.3594C175.695 18.4115 176.193 18.4831 176.682 18.5742C177.17 18.6654 177.639 18.7728 178.088 18.8965C178.537 19.0137 178.934 19.1406 179.279 19.2773L178.371 21.5234C177.635 21.25 176.9 21.0352 176.164 20.8789C175.435 20.7161 174.683 20.6348 173.908 20.6348C173.368 20.6348 172.909 20.6771 172.531 20.7617C172.16 20.8398 171.857 20.9473 171.623 21.084C171.389 21.2142 171.216 21.3672 171.105 21.543C171.001 21.7122 170.949 21.8913 170.949 22.0801C170.949 22.2168 170.975 22.3405 171.027 22.4512C171.086 22.5618 171.177 22.6595 171.301 22.7441C171.431 22.8223 171.597 22.8841 171.799 22.9297C172.007 22.9688 172.261 22.9883 172.561 22.9883C172.834 22.9883 173.124 22.972 173.43 22.9395C173.736 22.9069 174.055 22.8743 174.387 22.8418C174.719 22.8027 175.061 22.7669 175.412 22.7344C175.77 22.7018 176.135 22.6855 176.506 22.6855C177.196 22.6855 177.798 22.7669 178.312 22.9297C178.833 23.0924 179.263 23.3203 179.602 23.6133C179.94 23.9062 180.194 24.2513 180.363 24.6484C180.533 25.0456 180.617 25.4785 180.617 25.9473C180.617 26.5527 180.477 27.1159 180.197 27.6367C179.917 28.1576 179.501 28.61 178.947 28.9941C178.394 29.3717 177.704 29.668 176.877 29.8828C176.057 30.0977 175.106 30.2051 174.025 30.2051C173.361 30.2051 172.72 30.1628 172.102 30.0781C171.483 30 170.894 29.8926 170.334 29.7559C169.774 29.6126 169.247 29.4466 168.752 29.2578C168.264 29.069 167.818 28.8672 167.414 28.6523L168.664 26.4648Z" fill="#EFF1EC"/>
<path d="M81.4531 36.5781H86.4062V42.9531H101.594V36.5781H106.562V61H101.594V47.1875H86.4062V61H81.4531V36.5781ZM111.812 51.7812C111.812 50.4583 112.078 49.2188 112.609 48.0625C113.151 46.9062 113.917 45.8958 114.906 45.0312C115.906 44.1667 117.109 43.4844 118.516 42.9844C119.932 42.4844 121.521 42.2344 123.281 42.2344C125.042 42.2344 126.625 42.4844 128.031 42.9844C129.448 43.4844 130.651 44.1667 131.641 45.0312C132.641 45.8958 133.406 46.9062 133.938 48.0625C134.479 49.2188 134.75 50.4583 134.75 51.7812C134.75 53.1042 134.479 54.3438 133.938 55.5C133.406 56.6562 132.641 57.6667 131.641 58.5312C130.651 59.3958 129.448 60.0781 128.031 60.5781C126.625 61.0781 125.042 61.3281 123.281 61.3281C121.521 61.3281 119.932 61.0781 118.516 60.5781C117.109 60.0781 115.906 59.3958 114.906 58.5312C113.917 57.6667 113.151 56.6562 112.609 55.5C112.078 54.3438 111.812 53.1042 111.812 51.7812ZM116.672 51.7812C116.672 52.5208 116.818 53.224 117.109 53.8906C117.411 54.5469 117.844 55.1302 118.406 55.6406C118.979 56.1406 119.672 56.5417 120.484 56.8438C121.307 57.1354 122.24 57.2812 123.281 57.2812C124.323 57.2812 125.25 57.1354 126.062 56.8438C126.885 56.5417 127.578 56.1406 128.141 55.6406C128.714 55.1302 129.146 54.5469 129.438 53.8906C129.74 53.224 129.891 52.5208 129.891 51.7812C129.891 51.0417 129.74 50.3385 129.438 49.6719C129.146 49.0052 128.714 48.4219 128.141 47.9219C127.578 47.4115 126.885 47.0104 126.062 46.7188C125.25 46.4167 124.323 46.2656 123.281 46.2656C122.24 46.2656 121.307 46.4167 120.484 46.7188C119.672 47.0104 118.979 47.4115 118.406 47.9219C117.844 48.4219 117.411 49.0052 117.109 49.6719C116.818 50.3385 116.672 51.0417 116.672 51.7812ZM142.203 46.0312H137.75V42.5625H142.203V36.8281H146.828V42.5625H151.281V46.0312H146.828V61H142.203V46.0312ZM154.516 51.7188C154.516 50.4688 154.771 49.276 155.281 48.1406C155.792 46.9948 156.526 45.9844 157.484 45.1094C158.443 44.2344 159.615 43.5365 161 43.0156C162.396 42.4948 163.979 42.2344 165.75 42.2344C167.51 42.2344 169.094 42.5 170.5 43.0312C171.917 43.5521 173.115 44.2708 174.094 45.1875C175.083 46.1042 175.839 47.1823 176.359 48.4219C176.891 49.6615 177.156 50.9896 177.156 52.4062C177.156 52.5833 177.151 52.776 177.141 52.9844C177.141 53.1823 177.13 53.3646 177.109 53.5312H159.672C159.87 54.0833 160.188 54.5885 160.625 55.0469C161.073 55.5052 161.63 55.901 162.297 56.2344C162.964 56.5677 163.734 56.8281 164.609 57.0156C165.484 57.1927 166.453 57.2812 167.516 57.2812C168.578 57.2812 169.635 57.1719 170.688 56.9531C171.74 56.724 172.745 56.4375 173.703 56.0938L175.266 59.625C174.661 59.9062 174.047 60.1562 173.422 60.375C172.807 60.5833 172.161 60.7604 171.484 60.9062C170.818 61.0417 170.115 61.1458 169.375 61.2188C168.646 61.2917 167.875 61.3281 167.062 61.3281C164.99 61.3281 163.172 61.0781 161.609 60.5781C160.047 60.0781 158.74 59.3958 157.688 58.5312C156.635 57.6667 155.844 56.651 155.312 55.4844C154.781 54.3177 154.516 53.0625 154.516 51.7188ZM172.25 49.9219C172.083 49.4115 171.823 48.9375 171.469 48.5C171.125 48.0521 170.693 47.6667 170.172 47.3438C169.651 47.0104 169.047 46.75 168.359 46.5625C167.672 46.375 166.917 46.2812 166.094 46.2812C165.219 46.2812 164.422 46.3802 163.703 46.5781C162.984 46.776 162.354 47.0417 161.812 47.375C161.271 47.7083 160.818 48.0938 160.453 48.5312C160.099 48.9688 159.839 49.4323 159.672 49.9219H172.25ZM182.266 35.0781H186.891V61H182.266V35.0781Z" fill="#EFF1EC"/>
</svg>
