<svg width="24" height="25" viewBox="0 0 24 25" fill="none" xmlns="http://www.w3.org/2000/svg">
<path d="M12 2.60168C10.0716 2.60168 8.18657 3.17351 6.58319 4.24486C4.97982 5.3162 3.73013 6.83894 2.99218 8.62052C2.25422 10.4021 2.06114 12.3625 2.43735 14.2538C2.81355 16.1451 3.74215 17.8824 5.10571 19.246C6.46927 20.6095 8.20656 21.5381 10.0979 21.9143C11.9892 22.2905 13.9496 22.0975 15.7312 21.3595C17.5127 20.6216 19.0355 19.3719 20.1068 17.7685C21.1782 16.1651 21.75 14.2801 21.75 12.3517C21.7473 9.76666 20.7192 7.2883 18.8913 5.46041C17.0634 3.63252 14.585 2.60441 12 2.60168ZM16.2806 10.6323L11.0306 15.8823C10.961 15.952 10.8783 16.0074 10.7872 16.0451C10.6962 16.0828 10.5986 16.1023 10.5 16.1023C10.4014 16.1023 10.3038 16.0828 10.2128 16.0451C10.1218 16.0074 10.039 15.952 9.96938 15.8823L7.71938 13.6323C7.57865 13.4916 7.49959 13.3007 7.49959 13.1017C7.49959 12.9027 7.57865 12.7118 7.71938 12.5711C7.86011 12.4303 8.05098 12.3513 8.25 12.3513C8.44903 12.3513 8.6399 12.4303 8.78063 12.5711L10.5 14.2914L15.2194 9.57106C15.2891 9.50138 15.3718 9.4461 15.4628 9.40839C15.5539 9.37068 15.6515 9.35127 15.75 9.35127C15.8485 9.35127 15.9461 9.37068 16.0372 9.40839C16.1282 9.4461 16.2109 9.50138 16.2806 9.57106C16.3503 9.64074 16.4056 9.72347 16.4433 9.81451C16.481 9.90556 16.5004 10.0031 16.5004 10.1017C16.5004 10.2002 16.481 10.2978 16.4433 10.3889C16.4056 10.4799 16.3503 10.5626 16.2806 10.6323Z" fill="#189AF8"/>
</svg>
