<svg width="16" height="17" viewBox="0 0 16 17" fill="none" xmlns="http://www.w3.org/2000/svg">
<path d="M14.5 3.40894H1.5C1.22344 3.40894 1 3.63237 1 3.90894V13.9089C1 14.1855 1.22344 14.4089 1.5 14.4089H14.5C14.7766 14.4089 15 14.1855 15 13.9089V3.90894C15 3.63237 14.7766 3.40894 14.5 3.40894ZM13.875 5.14019V13.2839H2.125V5.14019L1.69375 4.80425L2.30781 4.01519L2.97656 4.5355H13.025L13.6938 4.01519L14.3078 4.80425L13.875 5.14019ZM13.025 4.53394L8 8.44019L2.975 4.53394L2.30625 4.01362L1.69219 4.80269L2.12344 5.13862L7.46094 9.28862C7.61444 9.40787 7.80328 9.47261 7.99766 9.47261C8.19203 9.47261 8.38088 9.40787 8.53438 9.28862L13.875 5.14019L14.3062 4.80425L13.6922 4.01519L13.025 4.53394Z" fill="#E7852B"/>
</svg>
