<svg width="16" height="17" viewBox="0 0 16 17" fill="none" xmlns="http://www.w3.org/2000/svg">
<path d="M2.29531 4.63862L3.95938 2.97612C4.1625 2.773 4.43437 2.65894 4.72188 2.65894C5.00938 2.65894 5.28125 2.77144 5.48438 2.97612L7.27656 4.76519C7.47969 4.96831 7.59375 5.24175 7.59375 5.52925C7.59375 5.81831 7.48125 6.08862 7.27656 6.29331L5.87656 7.69487C6.19549 8.43798 6.65374 9.11315 7.22656 9.68394C7.8 10.2605 8.47031 10.7152 9.21406 11.0371L10.6141 9.6355C10.8172 9.43237 11.0891 9.31831 11.3766 9.31831C11.5184 9.31779 11.6589 9.34557 11.7898 9.40004C11.9207 9.4545 12.0395 9.53455 12.1391 9.6355L13.9328 11.4246C14.1359 11.6277 14.25 11.9011 14.25 12.1886C14.25 12.4777 14.1375 12.748 13.9328 12.9527L12.2703 14.6152C11.9234 14.9621 11.4453 15.1605 10.9547 15.1605C10.8531 15.1605 10.7547 15.1527 10.6547 15.1355C8.58594 14.7949 6.53281 13.6933 4.875 12.0371C3.21875 10.3777 2.11875 8.32456 1.775 6.25425C1.67656 5.66675 1.87344 5.06206 2.29531 4.63862ZM2.88281 6.06831C3.1875 7.9105 4.17813 9.748 5.67031 11.2402C7.1625 12.7324 8.99844 13.723 10.8406 14.0277C11.0719 14.0667 11.3094 13.9886 11.4781 13.8214L13.1109 12.1886L11.3797 10.4558L9.50781 12.3308L9.49375 12.3449L9.15625 12.2199C8.13293 11.8436 7.20365 11.2494 6.43283 10.4783C5.662 9.70719 5.06807 8.7777 4.69219 7.75425L4.56719 7.41675L6.45469 5.53081L4.72344 3.798L3.09062 5.43081C2.92188 5.59956 2.84375 5.83706 2.88281 6.06831Z" fill="#E7852B"/>
</svg>
