<svg width="80" height="81" viewBox="0 0 80 81" fill="none" xmlns="http://www.w3.org/2000/svg">
<path d="M40 8C33.5721 8 27.2886 9.90609 21.944 13.4772C16.5994 17.0484 12.4338 22.1242 9.97393 28.0628C7.51408 34.0014 6.87047 40.5361 8.12449 46.8404C9.37851 53.1448 12.4738 58.9358 17.019 63.481C21.5643 68.0262 27.3552 71.1215 33.6596 72.3755C39.964 73.6295 46.4986 72.9859 52.4372 70.5261C58.3758 68.0662 63.4516 63.9006 67.0228 58.556C70.5939 53.2114 72.5 46.9279 72.5 40.5C72.4909 31.8833 69.0639 23.622 62.9709 17.5291C56.878 11.4361 48.6168 8.0091 40 8ZM49.2688 42.2688L36.7688 54.7688C36.5365 55.001 36.2607 55.1853 35.9573 55.311C35.6538 55.4367 35.3285 55.5014 35 55.5014C34.6715 55.5014 34.3463 55.4367 34.0428 55.311C33.7393 55.1853 33.4635 55.001 33.2313 54.7688C32.999 54.5365 32.8147 54.2607 32.689 53.9572C32.5633 53.6538 32.4986 53.3285 32.4986 53C32.4986 52.6715 32.5633 52.3462 32.689 52.0428C32.8147 51.7393 32.999 51.4635 33.2313 51.2312L43.9656 40.5L33.2313 29.7688C32.7622 29.2997 32.4986 28.6634 32.4986 28C32.4986 27.3366 32.7622 26.7003 33.2313 26.2312C33.7004 25.7621 34.3366 25.4986 35 25.4986C35.6634 25.4986 36.2997 25.7621 36.7688 26.2312L49.2688 38.7312C49.5012 38.9634 49.6856 39.2392 49.8114 39.5426C49.9372 39.8461 50.002 40.1715 50.002 40.5C50.002 40.8285 49.9372 41.1539 49.8114 41.4574C49.6856 41.7608 49.5012 42.0366 49.2688 42.2688Z" fill="white"/>
</svg>
