<svg width="80" height="81" viewBox="0 0 80 81" fill="none" xmlns="http://www.w3.org/2000/svg">
<path d="M40 8C46.4279 8 52.7114 9.90609 58.056 13.4772C63.4006 17.0484 67.5662 22.1242 70.0261 28.0628C72.4859 34.0014 73.1295 40.5361 71.8755 46.8404C70.6215 53.1448 67.5262 58.9358 62.981 63.481C58.4357 68.0262 52.6448 71.1215 46.3404 72.3755C40.036 73.6295 33.5014 72.9859 27.5628 70.5261C21.6242 68.0662 16.5484 63.9006 12.9772 58.556C9.40608 53.2114 7.49998 46.9279 7.49998 40.5C7.50909 31.8833 10.9361 23.622 17.0291 17.5291C23.122 11.4361 31.3832 8.0091 40 8ZM30.7312 42.2688L43.2312 54.7688C43.4635 55.001 43.7393 55.1853 44.0427 55.311C44.3462 55.4367 44.6715 55.5014 45 55.5014C45.3285 55.5014 45.6537 55.4367 45.9572 55.311C46.2607 55.1853 46.5365 55.001 46.7687 54.7688C47.001 54.5365 47.1853 54.2607 47.311 53.9572C47.4367 53.6538 47.5014 53.3285 47.5014 53C47.5014 52.6715 47.4367 52.3462 47.311 52.0428C47.1853 51.7393 47.001 51.4635 46.7687 51.2312L36.0344 40.5L46.7687 29.7688C47.2378 29.2997 47.5014 28.6634 47.5014 28C47.5014 27.3366 47.2378 26.7003 46.7687 26.2312C46.2996 25.7621 45.6634 25.4986 45 25.4986C44.3366 25.4986 43.7003 25.7621 43.2312 26.2312L30.7312 38.7312C30.4988 38.9634 30.3144 39.2392 30.1886 39.5426C30.0628 39.8461 29.998 40.1715 29.998 40.5C29.998 40.8285 30.0628 41.1539 30.1886 41.4574C30.3144 41.7608 30.4988 42.0366 30.7312 42.2688Z" fill="white"/>
</svg>
