<svg width="210" height="60" viewBox="0 0 210 60" fill="none" xmlns="http://www.w3.org/2000/svg">
<path d="M39.3024 30.7442C39.7134 30.0249 39.4635 29.1087 38.7442 28.6976C38.0249 28.2866 37.1087 28.5365 36.6976 29.2558L39.3024 30.7442ZM30 44L28.6976 44.7442C28.9647 45.2116 29.4617 45.5 30 45.5C30.5383 45.5 31.0353 45.2116 31.3024 44.7442L30 44ZM23.3024 29.2558C22.8913 28.5365 21.9751 28.2866 21.2558 28.6976C20.5365 29.1087 20.2866 30.0249 20.6976 30.7442L23.3024 29.2558ZM30 16V14.5V16ZM39 26H37.5C37.5 26.8284 38.1716 27.5 39 27.5V26ZM21 26V27.5C21.8284 27.5 22.5 26.8284 22.5 26H21ZM31.0552 40.6193C31.4662 41.3385 32.3825 41.5884 33.1018 41.1773C33.821 40.7663 34.0709 39.85 33.6598 39.1307L31.0552 40.6193ZM28.0161 29.2557C27.605 28.5365 26.6887 28.2866 25.9695 28.6977C25.2502 29.1087 25.0004 30.025 25.4114 30.7443L28.0161 29.2557ZM33.4113 36.4941C33.8223 37.2134 34.7385 37.4634 35.4578 37.0524C36.1772 36.6415 36.4271 35.7252 36.0162 35.0059L33.4113 36.4941ZM32.7312 29.2559C32.3202 28.5366 31.404 28.2866 30.6847 28.6976C29.9653 29.1085 29.7154 30.0248 30.1263 30.7441L32.7312 29.2559ZM56.5 30C56.5 44.6355 44.6355 56.5 30 56.5V59.5C46.2924 59.5 59.5 46.2924 59.5 30H56.5ZM30 56.5C15.3645 56.5 3.5 44.6355 3.5 30H0.5C0.5 46.2924 13.7076 59.5 30 59.5V56.5ZM3.5 30C3.5 15.3645 15.3645 3.5 30 3.5V0.5C13.7076 0.5 0.5 13.7076 0.5 30H3.5ZM30 3.5C44.6355 3.5 56.5 15.3645 56.5 30H59.5C59.5 13.7076 46.2924 0.5 30 0.5V3.5ZM36.6976 29.2558L28.6976 43.2558L31.3024 44.7442L39.3024 30.7442L36.6976 29.2558ZM31.3024 43.2558L23.3024 29.2558L20.6976 30.7442L28.6976 44.7442L31.3024 43.2558ZM22.5 25C22.5 23.0109 23.2902 21.1032 24.6967 19.6967L22.5754 17.5754C20.6062 19.5445 19.5 22.2152 19.5 25H22.5ZM24.6967 19.6967C26.1032 18.2902 28.0109 17.5 30 17.5V14.5C27.2152 14.5 24.5445 15.6062 22.5754 17.5754L24.6967 19.6967ZM30 17.5C31.9891 17.5 33.8968 18.2902 35.3033 19.6967L37.4246 17.5754C35.4555 15.6062 32.7848 14.5 30 14.5V17.5ZM35.3033 19.6967C36.7098 21.1032 37.5 23.0109 37.5 25H40.5C40.5 22.2152 39.3938 19.5445 37.4246 17.5754L35.3033 19.6967ZM37.5 25V26H40.5V25H37.5ZM39 27.5C39.1326 27.5 39.2598 27.5527 39.3536 27.6464L41.4749 25.5251C40.8185 24.8687 39.9283 24.5 39 24.5V27.5ZM39.3536 27.6464C39.4473 27.7402 39.5 27.8674 39.5 28H42.5C42.5 27.0717 42.1313 26.1815 41.4749 25.5251L39.3536 27.6464ZM39.5 28C39.5 28.1326 39.4473 28.2598 39.3536 28.3536L41.4749 30.4749C42.1313 29.8185 42.5 28.9283 42.5 28H39.5ZM39.3536 28.3536C39.2598 28.4473 39.1326 28.5 39 28.5V31.5C39.9283 31.5 40.8185 31.1313 41.4749 30.4749L39.3536 28.3536ZM39 28.5H21V31.5H39V28.5ZM21 28.5C20.8674 28.5 20.7402 28.4473 20.6464 28.3536L18.5251 30.4749C19.1815 31.1313 20.0717 31.5 21 31.5V28.5ZM20.6464 28.3536C20.5527 28.2598 20.5 28.1326 20.5 28H17.5C17.5 28.9283 17.8687 29.8185 18.5251 30.4749L20.6464 28.3536ZM20.5 28C20.5 27.8674 20.5527 27.7402 20.6464 27.6464L18.5251 25.5251C17.8687 26.1815 17.5 27.0717 17.5 28H20.5ZM20.6464 27.6464C20.7402 27.5527 20.8674 27.5 21 27.5V24.5C20.0717 24.5 19.1815 24.8687 18.5251 25.5251L20.6464 27.6464ZM22.5 26V25H19.5V26H22.5ZM33.6598 39.1307L28.0161 29.2557L25.4114 30.7443L31.0552 40.6193L33.6598 39.1307ZM36.0162 35.0059L32.7312 29.2559L30.1263 30.7441L33.4113 36.4941L36.0162 35.0059Z" fill="white"/>
<path d="M74.92 32V14.72H77.812V32H74.92ZM88.7146 32.36C86.9866 32.36 85.5066 31.984 84.2746 31.232C83.0426 30.472 82.0946 29.416 81.4306 28.064C80.7746 26.712 80.4466 25.144 80.4466 23.36C80.4466 21.576 80.7746 20.008 81.4306 18.656C82.0946 17.304 83.0426 16.252 84.2746 15.5C85.5066 14.74 86.9866 14.36 88.7146 14.36C90.7066 14.36 92.3666 14.86 93.6946 15.86C95.0226 16.852 95.9546 18.192 96.4906 19.88L93.5746 20.684C93.2386 19.556 92.6666 18.676 91.8586 18.044C91.0506 17.404 90.0026 17.084 88.7146 17.084C87.5546 17.084 86.5866 17.344 85.8106 17.864C85.0426 18.384 84.4626 19.116 84.0706 20.06C83.6866 20.996 83.4906 22.096 83.4826 23.36C83.4826 24.624 83.6746 25.728 84.0586 26.672C84.4506 27.608 85.0346 28.336 85.8106 28.856C86.5866 29.376 87.5546 29.636 88.7146 29.636C90.0026 29.636 91.0506 29.316 91.8586 28.676C92.6666 28.036 93.2386 27.156 93.5746 26.036L96.4906 26.84C95.9546 28.528 95.0226 29.872 93.6946 30.872C92.3666 31.864 90.7066 32.36 88.7146 32.36ZM99.1253 32V14.72H110.285V17.432H102.017V21.692H108.845V24.404H102.017V29.288H110.285V32H99.1253ZM117.22 28.784V24.488H112.924V22.22H117.22V17.936H119.488V22.22H123.76V24.488H119.488V28.784H117.22ZM134.183 32.36C132.455 32.36 130.975 31.984 129.743 31.232C128.511 30.472 127.563 29.416 126.899 28.064C126.243 26.712 125.915 25.144 125.915 23.36C125.915 21.576 126.243 20.008 126.899 18.656C127.563 17.304 128.511 16.252 129.743 15.5C130.975 14.74 132.455 14.36 134.183 14.36C136.175 14.36 137.835 14.86 139.163 15.86C140.491 16.852 141.423 18.192 141.959 19.88L139.043 20.684C138.707 19.556 138.135 18.676 137.327 18.044C136.519 17.404 135.471 17.084 134.183 17.084C133.023 17.084 132.055 17.344 131.279 17.864C130.511 18.384 129.931 19.116 129.539 20.06C129.155 20.996 128.959 22.096 128.951 23.36C128.951 24.624 129.143 25.728 129.527 26.672C129.919 27.608 130.503 28.336 131.279 28.856C132.055 29.376 133.023 29.636 134.183 29.636C135.471 29.636 136.519 29.316 137.327 28.676C138.135 28.036 138.707 27.156 139.043 26.036L141.959 26.84C141.423 28.528 140.491 29.872 139.163 30.872C137.835 31.864 136.175 32.36 134.183 32.36ZM144.594 32V14.72H151.734C151.902 14.72 152.118 14.728 152.382 14.744C152.646 14.752 152.89 14.776 153.114 14.816C154.114 14.968 154.938 15.3 155.586 15.812C156.242 16.324 156.726 16.972 157.038 17.756C157.358 18.532 157.518 19.396 157.518 20.348C157.518 21.756 157.162 22.968 156.45 23.984C155.738 24.992 154.646 25.616 153.174 25.856L151.938 25.964H147.486V32H144.594ZM154.518 32L151.11 24.968L154.05 24.32L157.794 32H154.518ZM147.486 23.264H151.614C151.774 23.264 151.954 23.256 152.154 23.24C152.354 23.224 152.538 23.192 152.706 23.144C153.186 23.024 153.562 22.812 153.834 22.508C154.114 22.204 154.31 21.86 154.422 21.476C154.542 21.092 154.602 20.716 154.602 20.348C154.602 19.98 154.542 19.604 154.422 19.22C154.31 18.828 154.114 18.48 153.834 18.176C153.562 17.872 153.186 17.66 152.706 17.54C152.538 17.492 152.354 17.464 152.154 17.456C151.954 17.44 151.774 17.432 151.614 17.432H147.486V23.264ZM160.438 32V14.72H171.598V17.432H163.33V21.692H170.158V24.404H163.33V29.288H171.598V32H160.438ZM173.277 32L178.725 14.72H182.961L188.409 32H185.433L180.489 16.496H181.137L176.253 32H173.277ZM176.313 28.256V25.556H185.385V28.256H176.313ZM190.578 32V14.72H193.182L199.158 26.96L205.134 14.72H207.738V32H205.038V20.924L199.734 32H198.582L193.29 20.924V32H190.578ZM77.6275 47.225C77.0275 47.225 76.46 47.1375 75.925 46.9625C75.395 46.7825 74.9525 46.5 74.5975 46.115C74.3125 45.8 74.1025 45.4575 73.9675 45.0875C73.8375 44.7125 73.765 44.3125 73.75 43.8875C73.75 43.4725 73.81 43.07 73.93 42.68C74.055 42.29 74.245 41.945 74.5 41.645C74.6 41.525 74.7075 41.42 74.8225 41.33C74.9425 41.235 75.0625 41.15 75.1825 41.075C74.8875 40.745 74.6625 40.425 74.5075 40.115C74.3575 39.805 74.2825 39.44 74.2825 39.02C74.2825 38.39 74.4525 37.825 74.7925 37.325C75.1325 36.825 75.595 36.465 76.18 36.245C76.435 36.15 76.6925 36.085 76.9525 36.05C77.2175 36.015 77.475 35.9975 77.725 35.9975C78.195 35.9975 78.6475 36.07 79.0825 36.215C79.5175 36.355 79.8875 36.585 80.1925 36.905C80.3875 37.09 80.55 37.3 80.68 37.535C80.81 37.765 80.9075 38.0025 80.9725 38.2475L79.1875 38.63C79.1175 38.405 78.995 38.2125 78.82 38.0525C78.67 37.9075 78.4925 37.8125 78.2875 37.7675C78.0825 37.7175 77.88 37.6925 77.68 37.6925C77.36 37.6925 77.0775 37.75 76.8325 37.865C76.5875 37.98 76.405 38.135 76.285 38.33C76.17 38.525 76.1125 38.7625 76.1125 39.0425C76.1125 39.2925 76.1575 39.4925 76.2475 39.6425C76.3425 39.7925 76.4575 39.945 76.5925 40.1C76.6825 40.2 76.7925 40.31 76.9225 40.43C77.0525 40.55 77.1875 40.675 77.3275 40.805L80.0425 43.3175C80.0475 43.2175 80.05 43.11 80.05 42.995C80.05 42.875 80.05 42.7625 80.05 42.6575V41.3375H81.64V43.295C81.64 43.565 81.6325 43.8275 81.6175 44.0825C81.6025 44.3325 81.5725 44.54 81.5275 44.705L82.87 45.935L81.7075 47.1725L80.665 46.1825C80.41 46.4225 80.13 46.6175 79.825 46.7675C79.52 46.9175 79.2125 47.025 78.9025 47.09C78.6775 47.145 78.4625 47.18 78.2575 47.195C78.0525 47.215 77.8425 47.225 77.6275 47.225ZM77.7025 45.5075C77.8575 45.5075 78.0025 45.5 78.1375 45.485C78.2775 45.47 78.4125 45.44 78.5425 45.395C78.7275 45.34 78.885 45.275 79.015 45.2C79.15 45.125 79.2675 45.0475 79.3675 44.9675L76.51 42.3425C76.375 42.3925 76.2525 42.4575 76.1425 42.5375C76.0375 42.6125 75.9475 42.6975 75.8725 42.7925C75.7775 42.9175 75.7025 43.065 75.6475 43.235C75.5975 43.4 75.5725 43.5825 75.5725 43.7825C75.5775 44.0125 75.615 44.2175 75.685 44.3975C75.755 44.5725 75.8475 44.73 75.9625 44.87C76.1425 45.1 76.4 45.265 76.735 45.365C77.07 45.46 77.3925 45.5075 77.7025 45.5075ZM91.6546 47.225C90.5746 47.225 89.6496 46.99 88.8796 46.52C88.1096 46.045 87.5171 45.385 87.1021 44.54C86.6921 43.695 86.4871 42.715 86.4871 41.6C86.4871 40.485 86.6921 39.505 87.1021 38.66C87.5171 37.815 88.1096 37.1575 88.8796 36.6875C89.6496 36.2125 90.5746 35.975 91.6546 35.975C92.8996 35.975 93.9371 36.2875 94.7671 36.9125C95.5971 37.5325 96.1796 38.37 96.5146 39.425L94.6921 39.9275C94.4821 39.2225 94.1246 38.6725 93.6196 38.2775C93.1146 37.8775 92.4596 37.6775 91.6546 37.6775C90.9296 37.6775 90.3246 37.84 89.8396 38.165C89.3596 38.49 88.9971 38.9475 88.7521 39.5375C88.5121 40.1225 88.3896 40.81 88.3846 41.6C88.3846 42.39 88.5046 43.08 88.7446 43.67C88.9896 44.255 89.3546 44.71 89.8396 45.035C90.3246 45.36 90.9296 45.5225 91.6546 45.5225C92.4596 45.5225 93.1146 45.3225 93.6196 44.9225C94.1246 44.5225 94.4821 43.9725 94.6921 43.2725L96.5146 43.775C96.1796 44.83 95.5971 45.67 94.7671 46.295C93.9371 46.915 92.8996 47.225 91.6546 47.225ZM102.729 47.225C101.649 47.225 100.724 46.99 99.9538 46.52C99.1838 46.045 98.5913 45.385 98.1763 44.54C97.7663 43.695 97.5613 42.715 97.5613 41.6C97.5613 40.485 97.7663 39.505 98.1763 38.66C98.5913 37.815 99.1838 37.1575 99.9538 36.6875C100.724 36.2125 101.649 35.975 102.729 35.975C103.809 35.975 104.734 36.2125 105.504 36.6875C106.279 37.1575 106.871 37.815 107.281 38.66C107.696 39.505 107.904 40.485 107.904 41.6C107.904 42.715 107.696 43.695 107.281 44.54C106.871 45.385 106.279 46.045 105.504 46.52C104.734 46.99 103.809 47.225 102.729 47.225ZM102.729 45.5225C103.454 45.5275 104.056 45.3675 104.536 45.0425C105.021 44.7175 105.384 44.26 105.624 43.67C105.869 43.08 105.991 42.39 105.991 41.6C105.991 40.81 105.869 40.125 105.624 39.545C105.384 38.96 105.021 38.505 104.536 38.18C104.056 37.855 103.454 37.6875 102.729 37.6775C102.004 37.6725 101.401 37.8325 100.921 38.1575C100.441 38.4825 100.079 38.94 99.8338 39.53C99.5938 40.12 99.4738 40.81 99.4738 41.6C99.4738 42.39 99.5938 43.0775 99.8338 43.6625C100.074 44.2425 100.434 44.695 100.914 45.02C101.399 45.345 102.004 45.5125 102.729 45.5225Z" fill="white"/>
</svg>
