<svg width="13" height="8" viewBox="0 0 13 8" fill="none" xmlns="http://www.w3.org/2000/svg">
<path d="M1.90377 0.817909C2.09903 0.622647 2.41562 0.622647 2.61088 0.817909L7.56062 5.76766C7.75589 5.96292 7.75589 6.2795 7.56062 6.47476L6.85352 7.18187C6.65826 7.37713 6.34167 7.37713 6.14641 7.18187L1.19666 2.23212C1.0014 2.03686 1.0014 1.72028 1.19666 1.52502L1.90377 0.817909Z" fill="white"/>
<path d="M5.46146 6.47465C5.2662 6.27938 5.2662 5.9628 5.46146 5.76754L10.4112 0.817792C10.6065 0.62253 10.9231 0.62253 11.1183 0.817792L11.8254 1.5249C12.0207 1.72016 12.0207 2.03674 11.8254 2.23201L6.87568 7.18175C6.68042 7.37702 6.36383 7.37702 6.16857 7.18175L5.46146 6.47465Z" fill="white"/>
</svg>
