<svg width="48" height="48" viewBox="0 0 48 48" fill="none" xmlns="http://www.w3.org/2000/svg">
<rect width="48" height="47.9943" rx="23.9972" fill="white" fill-opacity="0.5"/>
<path d="M30.25 12C27.6688 12 25.4088 13.11 24 14.9862C22.5912 13.11 20.3313 12 17.75 12C15.6953 12.0023 13.7254 12.8196 12.2725 14.2725C10.8196 15.7254 10.0023 17.6953 10 19.75C10 28.5 22.9738 35.5825 23.5262 35.875C23.6719 35.9533 23.8346 35.9943 24 35.9943C24.1654 35.9943 24.3281 35.9533 24.4737 35.875C25.0262 35.5825 38 28.5 38 19.75C37.9977 17.6953 37.1804 15.7254 35.7275 14.2725C34.2746 12.8196 32.3047 12.0023 30.25 12ZM24 33.85C21.7175 32.52 12 26.4613 12 19.75C12.002 18.2256 12.6084 16.7642 13.6863 15.6863C14.7642 14.6084 16.2256 14.002 17.75 14C20.1812 14 22.2225 15.295 23.075 17.375C23.1503 17.5584 23.2785 17.7153 23.4432 17.8257C23.6079 17.9361 23.8017 17.995 24 17.995C24.1983 17.995 24.3921 17.9361 24.5568 17.8257C24.7215 17.7153 24.8497 17.5584 24.925 17.375C25.7775 15.2912 27.8188 14 30.25 14C31.7744 14.002 33.2358 14.6084 34.3137 15.6863C35.3916 16.7642 35.998 18.2256 36 19.75C36 26.4513 26.28 32.5188 24 33.85Z" fill="black"/>
</svg>
