<svg width="48" height="48" viewBox="0 0 48 48" fill="none" xmlns="http://www.w3.org/2000/svg">
<rect width="48" height="47.9943" rx="23.9972" fill="white"/>
<path d="M38 19.75C38 28.5 25.0262 35.5825 24.4737 35.875C24.3281 35.9533 24.1654 35.9943 24 35.9943C23.8346 35.9943 23.6719 35.9533 23.5262 35.875C22.9738 35.5825 10 28.5 10 19.75C10.0023 17.6953 10.8196 15.7254 12.2725 14.2725C13.7254 12.8196 15.6953 12.0023 17.75 12C20.3313 12 22.5912 13.11 24 14.9862C25.4088 13.11 27.6688 12 30.25 12C32.3047 12.0023 34.2746 12.8196 35.7275 14.2725C37.1804 15.7254 37.9977 17.6953 38 19.75Z" fill="black"/>
</svg>
