<svg width="87" height="36" viewBox="0 0 87 36" fill="none" xmlns="http://www.w3.org/2000/svg">
<path d="M0 28.6743L5.87112 3.51349H21.8929L20.7611 8.16079H10.2568L9.125 13.2438H18.3915L17.2951 17.8185H8.02858L6.61386 23.9907H17.9317L16.7999 28.6743H0Z" fill="white"/>
<path d="M27.6491 29.0373C25.975 29.0373 24.6546 28.8195 23.6879 28.3838C22.7447 27.9239 22.0609 27.3067 21.6365 26.5322C21.2357 25.7576 21.0352 24.8741 21.0352 23.8817C21.0588 22.8651 21.2003 21.788 21.4597 20.6504L25.9514 1.37137L31.4335 0.5L26.5173 21.4129C26.423 21.8485 26.3641 22.2479 26.3405 22.611C26.3405 22.9741 26.4112 23.3008 26.5527 23.5913C26.6942 23.8575 26.9299 24.0754 27.26 24.2448C27.6137 24.4142 28.0971 24.5232 28.7101 24.5716L27.6491 29.0373Z" fill="white"/>
<path d="M31.2719 21.195C31.2719 19.6459 31.5312 18.1452 32.05 16.6929C32.5923 15.2407 33.3468 13.9578 34.3135 12.8444C35.2803 11.7068 36.4474 10.7991 37.815 10.1214C39.2061 9.41943 40.7387 9.06847 42.4128 9.06847C43.2381 9.06847 44.0044 9.18949 44.7118 9.43154C45.4191 9.67358 46.0322 10.0245 46.5509 10.4844C47.0932 10.9443 47.5059 11.5131 47.7888 12.1909C48.0953 12.8444 48.2486 13.5947 48.2486 14.4419C48.2486 15.7974 47.9539 16.9471 47.3644 17.8911C46.7749 18.8351 45.9497 19.6096 44.8886 20.2147C43.8512 20.7956 42.6133 21.2192 41.175 21.4855C39.7366 21.7517 38.1687 21.8849 36.471 21.8849C36.636 22.9015 36.9897 23.6276 37.532 24.0633C38.0979 24.4748 38.9821 24.6805 40.1846 24.6805C40.9392 24.6805 41.7055 24.62 42.4836 24.499C43.2617 24.3537 42.58 24.5353 44.6764 23.8817C46.7728 23.2282 49.2839 20.36 49.2839 20.36L50.4032 22.8288L50.2781 24.6805C50.2781 24.6805 48.8711 26.1623 47.7888 26.8589C46.799 27.496 45.0655 28.1297 45.0655 28.1297C44.4053 28.3959 43.5564 28.638 42.5189 28.8558C41.5051 29.0737 40.3969 29.1826 39.1943 29.1826C37.7324 29.1826 36.4946 28.9768 35.4807 28.5654C34.4904 28.1297 33.6769 27.5488 33.0403 26.8226C32.4272 26.0965 31.9792 25.2493 31.6963 24.2811C31.4133 23.3129 31.2719 22.2842 31.2719 21.195ZM41.564 13.3527C40.3615 13.3527 39.3004 13.8005 38.3809 14.6961C37.4849 15.5674 36.8954 16.7293 36.6125 18.1815C38.0743 18.1331 39.2533 18.0121 40.1493 17.8185C41.0453 17.6006 41.7408 17.3465 42.236 17.056C42.7312 16.7656 43.0613 16.4509 43.2263 16.112C43.3914 15.7732 43.4739 15.4343 43.4739 15.0954C43.4739 13.9336 42.8373 13.3527 41.564 13.3527Z" fill="white"/>
<path d="M64.1386 26.278C63.7849 27.8513 63.3133 29.2068 62.7239 30.3444C62.158 31.5062 61.4388 32.4623 60.5664 33.2127C59.7176 33.9872 58.6919 34.556 57.4894 34.9191C56.2869 35.3064 54.8839 35.5 53.2806 35.5C51.7951 35.5 50.5454 35.3548 49.5315 35.0643C48.5176 34.7981 47.5981 34.4592 46.7728 34.0477L48.5412 29.7635C49.2722 30.1024 50.0267 30.3928 50.8048 30.6349C51.6065 30.8769 52.585 30.9979 53.7403 30.9979C55.2494 30.9979 56.3812 30.647 57.1357 29.945C57.9138 29.2673 58.4207 28.3838 58.6565 27.2946L58.798 26.6048C58.3264 26.8468 57.8195 27.0405 57.2772 27.1857C56.7584 27.3309 56.2043 27.4035 55.6149 27.4035C54.5066 27.4035 53.5517 27.2341 52.75 26.8952C51.9484 26.5322 51.2881 26.036 50.7694 25.4066C50.2743 24.7773 49.897 24.0391 49.6376 23.1919C49.4018 22.3205 49.2839 21.3766 49.2839 20.36C49.2839 18.5204 49.614 16.8987 50.2743 15.4948C50.9345 14.0667 51.8069 12.8807 52.8915 11.9367C53.9997 10.9927 55.2612 10.2787 56.6759 9.79461C58.1142 9.31051 59.6115 9.06847 61.1677 9.06847C62.2994 9.06847 63.4194 9.18949 64.5276 9.43154C65.6358 9.67358 66.7205 10.0488 67.7815 10.5571L64.1386 26.278ZM61.8043 13.7521C61.4035 13.6553 60.9083 13.6068 60.3188 13.6068C59.4228 13.6068 58.6212 13.7763 57.9138 14.1151C57.2064 14.4298 56.5934 14.8655 56.0746 15.4222C55.5795 15.9789 55.1904 16.6566 54.9075 17.4554C54.6481 18.2299 54.5184 19.065 54.5184 19.9606C54.5184 20.3963 54.5538 20.8077 54.6245 21.195C54.6953 21.5581 54.825 21.8849 55.0136 22.1753C55.2022 22.4416 55.4616 22.6594 55.7917 22.8288C56.1218 22.9983 56.5344 23.083 57.0296 23.083C57.3597 23.083 57.7959 23.0225 58.3382 22.9015C58.9041 22.7804 59.411 22.5021 59.859 22.0664L61.8043 13.7521Z" fill="white"/>
<path d="M84.7011 20.4326C84.371 21.8122 84.2766 23.204 84.4181 24.6079C84.5596 25.9876 84.8307 27.222 85.2316 28.3112L80.5276 29.001C80.3861 28.7106 80.2565 28.4322 80.1386 28.166C80.0207 27.8997 79.9028 27.5972 79.7849 27.2583C79.1247 27.815 78.3937 28.2749 77.5921 28.638C76.7904 29.001 75.8944 29.1826 74.9041 29.1826C73.7251 29.1826 72.7112 28.9768 71.8624 28.5654C71.0371 28.1297 70.3534 27.5609 69.8111 26.8589C69.2923 26.1328 68.9151 25.2977 68.6793 24.3537C68.4435 23.3855 68.3256 22.3568 68.3256 21.2676C68.3256 19.5975 68.6085 18.0242 69.1744 16.5477C69.7639 15.0712 70.5656 13.7884 71.5795 12.6992C72.6169 11.5858 73.8312 10.7144 75.2224 10.0851C76.6135 9.45574 78.1226 9.14108 79.7495 9.14108C79.9617 9.14108 80.3272 9.15318 80.8459 9.17739C81.3882 9.20159 82.0013 9.2621 82.6851 9.35892C83.3689 9.43153 84.088 9.56466 84.8425 9.7583C85.5971 9.95194 86.3162 10.2182 87 10.5571L84.7011 20.4326ZM81.0228 13.7521C80.7162 13.7037 80.4333 13.6674 80.1739 13.6432C79.9381 13.6189 79.6434 13.6068 79.2897 13.6068C78.488 13.6068 77.7335 13.8126 77.0262 14.2241C76.3424 14.6355 75.7411 15.1802 75.2224 15.8579C74.7037 16.5114 74.291 17.2739 73.9845 18.1452C73.7016 19.0166 73.5601 19.9243 73.5601 20.8683C73.5601 22.0301 73.7487 22.9499 74.126 23.6276C74.5032 24.3053 75.1988 24.6442 76.2127 24.6442C76.755 24.6442 77.2384 24.5353 77.6628 24.3174C78.1108 24.0996 78.5824 23.7365 79.0775 23.2282C79.1247 22.6231 79.1954 21.9938 79.2897 21.3403C79.4076 20.6625 79.5255 20.0453 79.6434 19.4886L81.0228 13.7521Z" fill="white"/>
</svg>
