<svg width="16" height="16" viewBox="0 0 16 16" fill="none" xmlns="http://www.w3.org/2000/svg">
<path d="M14.9499 6.08062C14.8893 5.89399 14.7752 5.72929 14.6217 5.60704C14.4683 5.4848 14.2822 5.4104 14.0868 5.39312L10.3749 5.07312L8.91989 1.61312C8.84414 1.43157 8.71636 1.27649 8.55265 1.16741C8.38894 1.05833 8.19662 1.00012 7.99989 1.00012C7.80317 1.00012 7.61085 1.05833 7.44713 1.16741C7.28342 1.27649 7.15565 1.43157 7.07989 1.61312L5.62927 5.07312L1.91302 5.39437C1.71665 5.41074 1.52949 5.48476 1.37505 5.60714C1.22061 5.72952 1.10576 5.89479 1.04493 6.08222C0.984104 6.26965 0.980005 6.47087 1.03315 6.66061C1.08629 6.85036 1.19431 7.02018 1.34364 7.14875L4.16302 9.6125L3.31802 13.2712C3.27334 13.4627 3.28609 13.6631 3.35467 13.8474C3.42326 14.0316 3.54464 14.1916 3.70364 14.3072C3.86264 14.4229 4.0522 14.4891 4.24863 14.4976C4.44505 14.5061 4.63963 14.4565 4.80802 14.355L7.99552 12.4175L11.1899 14.355C11.3583 14.4565 11.5529 14.5061 11.7493 14.4976C11.9457 14.4891 12.1353 14.4229 12.2943 14.3072C12.4533 14.1916 12.5747 14.0316 12.6432 13.8474C12.7118 13.6631 12.7246 13.4627 12.6799 13.2712L11.8355 9.60875L14.6543 7.14875C14.8034 7.01969 14.911 6.84944 14.9636 6.65938C15.0162 6.46933 15.0114 6.26797 14.9499 6.08062ZM13.9986 6.39312L11.1799 8.85312C11.0427 8.97246 10.9407 9.12694 10.8847 9.29994C10.8288 9.47295 10.8211 9.65793 10.8624 9.835L11.7093 13.5L8.51739 11.5625C8.36167 11.4677 8.18285 11.4175 8.00052 11.4175V2.00562L9.45052 5.46062C9.52094 5.62853 9.63587 5.77403 9.78291 5.88142C9.92995 5.98881 10.1035 6.05401 10.2849 6.07L13.9999 6.39125C13.9999 6.39125 13.9999 6.395 13.9999 6.39562L13.9986 6.39312Z" fill="white"/>
</svg>
