<svg width="48" height="48" viewBox="0 0 48 48" fill="none" xmlns="http://www.w3.org/2000/svg">
<path d="M27 3H21C17.8185 3.00347 14.7682 4.26887 12.5186 6.51856C10.2689 8.76824 9.00347 11.8185 9 15V33C9.00347 36.1815 10.2689 39.2318 12.5186 41.4814C14.7682 43.7311 17.8185 44.9965 21 45H27C30.1815 44.9965 33.2318 43.7311 35.4814 41.4814C37.7311 39.2318 38.9965 36.1815 39 33V15C38.9965 11.8185 37.7311 8.76824 35.4814 6.51856C33.2318 4.26887 30.1815 3.00347 27 3ZM36 33C35.9975 35.3862 35.0485 37.6739 33.3612 39.3612C31.6739 41.0485 29.3862 41.9975 27 42H21C18.6138 41.9975 16.3261 41.0485 14.6388 39.3612C12.9515 37.6739 12.0025 35.3862 12 33V15C12.0025 12.6138 12.9515 10.3261 14.6388 8.63878C16.3261 6.95149 18.6138 6.00248 21 6H27C29.3862 6.00248 31.6739 6.95149 33.3612 8.63878C35.0485 10.3261 35.9975 12.6138 36 15V33ZM25.5 12V21C25.5 21.3978 25.342 21.7794 25.0607 22.0607C24.7794 22.342 24.3978 22.5 24 22.5C23.6022 22.5 23.2206 22.342 22.9393 22.0607C22.658 21.7794 22.5 21.3978 22.5 21V12C22.5 11.6022 22.658 11.2206 22.9393 10.9393C23.2206 10.658 23.6022 10.5 24 10.5C24.3978 10.5 24.7794 10.658 25.0607 10.9393C25.342 11.2206 25.5 11.6022 25.5 12Z" fill="white"/>
</svg>
