<svg width="16" height="16" viewBox="0 0 16 16" fill="none" xmlns="http://www.w3.org/2000/svg">
<path d="M14.3539 13.6461L11.2245 10.5174C12.1315 9.42846 12.5838 8.03177 12.4873 6.61786C12.3908 5.20395 11.7528 3.88168 10.7062 2.92613C9.65963 1.97058 8.28492 1.45531 6.86808 1.48751C5.45125 1.51971 4.10137 2.0969 3.09926 3.09901C2.09714 4.10112 1.51995 5.451 1.48775 6.86784C1.45555 8.28468 1.97082 9.65938 2.92637 10.706C3.88193 11.7526 5.20419 12.3905 6.6181 12.487C8.03201 12.5836 9.42871 12.1313 10.5176 11.2243L13.6464 14.3536C13.6928 14.4001 13.748 14.437 13.8087 14.4621C13.8694 14.4872 13.9344 14.5002 14.0001 14.5002C14.0658 14.5002 14.1309 14.4872 14.1916 14.4621C14.2523 14.437 14.3074 14.4001 14.3539 14.3536C14.4003 14.3072 14.4372 14.252 14.4623 14.1913C14.4875 14.1307 14.5004 14.0656 14.5004 13.9999C14.5004 13.9342 14.4875 13.8691 14.4623 13.8085C14.4372 13.7478 14.4003 13.6926 14.3539 13.6461ZM2.50014 6.9999C2.50014 6.10988 2.76406 5.23985 3.25853 4.49983C3.753 3.75981 4.4558 3.18303 5.27807 2.84244C6.10033 2.50185 7.00513 2.41273 7.87805 2.58636C8.75096 2.76 9.55279 3.18858 10.1821 3.81792C10.8115 4.44725 11.24 5.24908 11.4137 6.12199C11.5873 6.99491 11.4982 7.89971 11.1576 8.72197C10.817 9.54424 10.2402 10.247 9.50021 10.7415C8.76019 11.236 7.89016 11.4999 7.00014 11.4999C5.80707 11.4986 4.66325 11.024 3.81962 10.1804C2.976 9.33679 2.50147 8.19297 2.50014 6.9999Z" fill="black"/>
</svg>
