<svg width="49" height="50" viewBox="0 0 49 50" fill="none" xmlns="http://www.w3.org/2000/svg">
<rect x="1" y="1.36206" width="47" height="47" rx="23.5" fill="#FF6978" stroke="#1F1F1F" stroke-width="2"/>
<g clip-path="url(#clip0_0_98)">
<path d="M25 30.3621C27.7614 30.3621 30 28.1235 30 25.3621C30 22.6006 27.7614 20.3621 25 20.3621C22.2386 20.3621 20 22.6006 20 25.3621C20 28.1235 22.2386 30.3621 25 30.3621Z" stroke="#1F1F1F" stroke-width="2" stroke-miterlimit="10"/>
<path d="M31 13.3621H19C15.6863 13.3621 13 16.0484 13 19.3621V31.3621C13 34.6758 15.6863 37.3621 19 37.3621H31C34.3137 37.3621 37 34.6758 37 31.3621V19.3621C37 16.0484 34.3137 13.3621 31 13.3621Z" stroke="#1F1F1F" stroke-width="2" stroke-linecap="round" stroke-linejoin="round"/>
<path d="M31.5 20.3621C32.3284 20.3621 33 19.6905 33 18.8621C33 18.0336 32.3284 17.3621 31.5 17.3621C30.6716 17.3621 30 18.0336 30 18.8621C30 19.6905 30.6716 20.3621 31.5 20.3621Z" fill="#1F1F1F"/>
</g>
<defs>
<clipPath id="clip0_0_98">
<rect width="32" height="32" fill="white" transform="translate(9 9.36206)"/>
</clipPath>
</defs>
</svg>
