<svg width="49" height="50" viewBox="0 0 49 50" fill="none" xmlns="http://www.w3.org/2000/svg">
<rect x="1" y="1.34644" width="47" height="47" rx="23.5" fill="#FF6978" stroke="#1F1F1F" stroke-width="2"/>
<g clip-path="url(#clip0_0_105)">
<path d="M36 13.3464H14C13.4477 13.3464 13 13.7942 13 14.3464V36.3464C13 36.8987 13.4477 37.3464 14 37.3464H36C36.5523 37.3464 37 36.8987 37 36.3464V14.3464C37 13.7942 36.5523 13.3464 36 13.3464Z" stroke="#1F1F1F" stroke-width="2" stroke-linecap="round" stroke-linejoin="round"/>
<path d="M24 23.3464V31.3464" stroke="#1F1F1F" stroke-width="2" stroke-linecap="round" stroke-linejoin="round"/>
<path d="M20 23.3464V31.3464" stroke="#1F1F1F" stroke-width="2" stroke-linecap="round" stroke-linejoin="round"/>
<path d="M24 26.8464C24 25.9182 24.3687 25.0279 25.0251 24.3716C25.6815 23.7152 26.5717 23.3464 27.5 23.3464C28.4283 23.3464 29.3185 23.7152 29.9749 24.3716C30.6313 25.0279 31 25.9182 31 26.8464V31.3464" stroke="#1F1F1F" stroke-width="2" stroke-linecap="round" stroke-linejoin="round"/>
<path d="M20 21.3464C20.8284 21.3464 21.5 20.6749 21.5 19.8464C21.5 19.018 20.8284 18.3464 20 18.3464C19.1716 18.3464 18.5 19.018 18.5 19.8464C18.5 20.6749 19.1716 21.3464 20 21.3464Z" fill="#1F1F1F"/>
</g>
<defs>
<clipPath id="clip0_0_105">
<rect width="32" height="32" fill="white" transform="translate(9 9.34644)"/>
</clipPath>
</defs>
</svg>
