<svg width="49" height="50" viewBox="0 0 49 50" fill="none" xmlns="http://www.w3.org/2000/svg">
<rect x="1" y="1.33081" width="47" height="47" rx="23.5" fill="#FF6978" stroke="#1F1F1F" stroke-width="2"/>
<g clip-path="url(#clip0_0_77)">
<path d="M32 14.3308C33.1046 14.3308 34 13.4354 34 12.3308C34 11.2262 33.1046 10.3308 32 10.3308C30.8954 10.3308 30 11.2262 30 12.3308C30 13.4354 30.8954 14.3308 32 14.3308Z" stroke="#1F1F1F" stroke-width="2" stroke-linecap="round" stroke-linejoin="round"/>
<path d="M25 17.3308L26 11.3308L30.0362 11.9521" stroke="#1F1F1F" stroke-width="2" stroke-linecap="round" stroke-linejoin="round"/>
<path d="M16.4263 19.5658C18.715 18.1746 21.715 17.3308 25 17.3308C28.285 17.3308 31.285 18.1746 33.5738 19.5658C33.8361 19.2059 34.1752 18.909 34.5666 18.6965C34.958 18.484 35.3917 18.3613 35.8364 18.3373C36.2811 18.3134 36.7255 18.3887 37.1375 18.5578C37.5494 18.7269 37.9186 18.9857 38.2181 19.3152C38.5176 19.6448 38.74 20.0369 38.8691 20.4631C38.9983 20.8893 39.0309 21.3388 38.9646 21.7792C38.8984 22.2196 38.735 22.6397 38.4862 23.009C38.2374 23.3784 37.9095 23.6877 37.5263 23.9146C37.8379 24.6821 37.9987 25.5024 38 26.3308C38 31.3008 32.18 35.3308 25 35.3308C17.82 35.3308 12 31.3008 12 26.3308C12.0013 25.5024 12.1621 24.6821 12.4738 23.9146C12.0905 23.6877 11.7626 23.3784 11.5138 23.009C11.265 22.6397 11.1016 22.2196 11.0354 21.7792C10.9691 21.3388 11.0017 20.8893 11.1309 20.4631C11.26 20.0369 11.4824 19.6448 11.7819 19.3152C12.0815 18.9857 12.4506 18.7269 12.8625 18.5578C13.2745 18.3887 13.7189 18.3134 14.1636 18.3373C14.6083 18.3613 15.0421 18.484 15.4334 18.6965C15.8248 18.909 16.1639 19.2059 16.4263 19.5658Z" stroke="#1F1F1F" stroke-width="2" stroke-linecap="round" stroke-linejoin="round"/>
<path d="M20 26.3308C21.1046 26.3308 22 25.4354 22 24.3308C22 23.2262 21.1046 22.3308 20 22.3308C18.8954 22.3308 18 23.2262 18 24.3308C18 25.4354 18.8954 26.3308 20 26.3308Z" fill="#1F1F1F"/>
<path d="M30 26.3308C31.1046 26.3308 32 25.4354 32 24.3308C32 23.2262 31.1046 22.3308 30 22.3308C28.8954 22.3308 28 23.2262 28 24.3308C28 25.4354 28.8954 26.3308 30 26.3308Z" fill="#1F1F1F"/>
<path d="M29 30.3308C27.7689 30.9874 26.3952 31.3308 25 31.3308C23.6048 31.3308 22.2311 30.9874 21 30.3308" stroke="#1F1F1F" stroke-width="2" stroke-linecap="round" stroke-linejoin="round"/>
</g>
<defs>
<clipPath id="clip0_0_77">
<rect width="32" height="32" fill="white" transform="translate(9 8.33081)"/>
</clipPath>
</defs>
</svg>
