<svg width="49" height="50" viewBox="0 0 49 50" fill="none" xmlns="http://www.w3.org/2000/svg">
<rect x="1" y="1.39331" width="47" height="47" rx="23.5" fill="#FF6978" stroke="#1F1F1F" stroke-width="2"/>
<g clip-path="url(#clip0_0_93)">
<path d="M30 22.1433C32.0387 23.6107 34.4881 24.3981 37 24.3933V19.3933C35.1435 19.3933 33.363 18.6558 32.0503 17.3431C30.7375 16.0303 30 14.2498 30 12.3933H25V28.8933C24.9997 29.5196 24.8314 30.1343 24.5126 30.6734C24.1938 31.2125 23.7362 31.6562 23.1875 31.9581C22.6389 32.2601 22.0192 32.4093 21.3932 32.3902C20.7672 32.3711 20.1578 32.1844 19.6285 31.8495C19.0993 31.5146 18.6696 31.0439 18.3843 30.4863C18.099 29.9288 17.9685 29.3049 18.0064 28.6798C18.0444 28.0547 18.2494 27.4511 18.6 26.9322C18.9507 26.4133 19.4341 25.998 20 25.7296V20.3933C16.0213 21.1021 13 24.7108 13 28.8933C13 31.1477 13.8955 33.3097 15.4896 34.9037C17.0837 36.4978 19.2457 37.3933 21.5 37.3933C23.7543 37.3933 25.9163 36.4978 27.5104 34.9037C29.1045 33.3097 30 31.1477 30 28.8933V22.1433Z" stroke="#1F1F1F" stroke-width="2" stroke-linecap="round" stroke-linejoin="round"/>
</g>
<defs>
<clipPath id="clip0_0_93">
<rect width="32" height="32" fill="white" transform="translate(9 9.39331)"/>
</clipPath>
</defs>
</svg>
