<svg width="49" height="50" viewBox="0 0 49 50" fill="none" xmlns="http://www.w3.org/2000/svg">
<rect x="1" y="1.45581" width="47" height="47" rx="23.5" fill="#FF6978" stroke="#1F1F1F" stroke-width="2"/>
<g clip-path="url(#clip0_0_87)">
<path d="M29 25.4558L23 21.4558V29.4558L29 25.4558Z" stroke="#1F1F1F" stroke-width="2" stroke-linecap="round" stroke-linejoin="round"/>
<path d="M12 25.4558C12 29.1946 12.3837 31.3871 12.6762 32.5146C12.7536 32.8212 12.9026 33.1052 13.111 33.3431C13.3193 33.5811 13.5812 33.7662 13.875 33.8833C18.065 35.4996 25 35.4558 25 35.4558C25 35.4558 31.935 35.4996 36.125 33.8833C36.4197 33.7668 36.6826 33.582 36.8919 33.344C37.1012 33.1061 37.2509 32.8218 37.3288 32.5146C37.6213 31.3896 38.005 29.1946 38.005 25.4558C38.005 21.7171 37.6213 19.5246 37.3288 18.3971C37.2518 18.0887 37.1024 17.8031 36.8931 17.564C36.6838 17.3249 36.4205 17.1391 36.125 17.0221C31.935 15.4121 25 15.4558 25 15.4558C25 15.4558 18.065 15.4121 13.875 17.0283C13.5795 17.1454 13.3162 17.3312 13.1069 17.5703C12.8976 17.8094 12.7482 18.095 12.6713 18.4033C12.3838 19.5233 12 21.7171 12 25.4558Z" stroke="#1F1F1F" stroke-width="2" stroke-linecap="round" stroke-linejoin="round"/>
</g>
<defs>
<clipPath id="clip0_0_87">
<rect width="32" height="32" fill="white" transform="translate(9 9.45581)"/>
</clipPath>
</defs>
</svg>
