<svg width="24" height="24" viewBox="0 0 24 24" fill="none" xmlns="http://www.w3.org/2000/svg">
<g clip-path="url(#clip0_27_163)">
<path d="M0.0625 23.9375V0.0625H23.9375V23.9375H0.0625Z" stroke="#252525" stroke-width="0.125"/>
<path d="M19.6566 6.75H4.34347C4.15912 6.74998 3.98112 6.81734 3.84299 6.93942C3.70485 7.0615 3.61611 7.22986 3.59347 7.41281L2.25753 18.6628C2.24517 18.7684 2.25539 18.8754 2.28751 18.9767C2.31962 19.078 2.37291 19.1713 2.44382 19.2505C2.51474 19.3296 2.60167 19.3928 2.69885 19.4358C2.79603 19.4788 2.90125 19.5007 3.00753 19.5H20.9925C21.0988 19.5007 21.204 19.4788 21.3012 19.4358C21.3984 19.3928 21.4853 19.3296 21.5562 19.2505C21.6272 19.1713 21.6804 19.078 21.7126 18.9767C21.7447 18.8754 21.7549 18.7684 21.7425 18.6628L20.4066 7.41281C20.3839 7.22986 20.2952 7.0615 20.1571 6.93942C20.0189 6.81734 19.8409 6.74998 19.6566 6.75Z" stroke="#252525" stroke-width="2" stroke-linecap="round" stroke-linejoin="round"/>
<path d="M8.25 9.75V6C8.25 5.00544 8.64509 4.05161 9.34835 3.34835C10.0516 2.64509 11.0054 2.25 12 2.25C12.9946 2.25 13.9484 2.64509 14.6517 3.34835C15.3549 4.05161 15.75 5.00544 15.75 6V9.75" stroke="#252525" stroke-width="2" stroke-linecap="round" stroke-linejoin="round"/>
</g>
<defs>
<clipPath id="clip0_27_163">
<rect width="24" height="24" fill="white"/>
</clipPath>
</defs>
</svg>
