<svg width="31" height="30" viewBox="0 0 31 30" fill="none" xmlns="http://www.w3.org/2000/svg">
<path fill-rule="evenodd" clip-rule="evenodd" d="M15.1506 30.0038C23.4696 30.0038 30.2135 23.2881 30.2135 15.0038C30.2135 6.71951 23.4696 0.00378418 15.1506 0.00378418C6.83155 0.00378418 0.0876465 6.71951 0.0876465 15.0038C0.0876465 16.5679 0.328053 18.0761 0.774078 19.4938C0.884191 19.5157 1.05104 19.5588 1.28469 19.6271L0.88437 13.3479C0.88437 13.2328 1.07913 13.1774 1.25756 13.1267C1.35549 13.0989 1.4485 13.0724 1.5017 13.0383C1.64697 12.9467 4.63861 14.0357 4.79842 14.108L8.62403 15.833C9.61191 15.2114 10.7935 14.9609 11.9557 15.1295L15.4326 10.9036C15.4762 7.53051 18.2365 4.8128 21.6311 4.80798C24.803 4.84171 27.4325 7.25103 27.7327 10.388C28.0523 13.7803 25.5536 16.7871 22.1444 17.11L16.3527 21.2299C15.9992 23.0369 14.7014 24.5162 12.9484 25.1041C10.2608 26.01 7.34075 24.574 6.4352 21.8949L4.4207 21.2299C4.27368 21.1833 1.61502 20.081 0.823617 19.6483C2.78728 25.6592 8.45944 30.0038 15.1506 30.0038ZM24.7306 10.9757C24.7306 12.6789 23.343 14.0597 21.6313 14.0597C19.9196 14.0597 18.532 12.6789 18.532 10.9757C18.532 9.27254 19.9196 7.89182 21.6313 7.89182C23.343 7.89182 24.7306 9.27254 24.7306 10.9757ZM23.6996 10.9758C23.6996 12.1121 22.7738 13.0333 21.6318 13.0333C20.4898 13.0333 19.564 12.1121 19.564 10.9758C19.564 9.8394 20.4898 8.91821 21.6318 8.91821C22.7738 8.91821 23.6996 9.8394 23.6996 10.9758ZM9.95645 23.0032C10.3729 23.2055 10.8329 23.3116 11.2978 23.3116C11.6513 23.3116 11.9951 23.2537 12.3341 23.1429C13.1137 22.8731 13.7481 22.3093 14.1064 21.572C14.8522 20.0349 14.2033 18.1942 12.6634 17.4521C12.4019 17.3268 12.0968 17.4328 11.9709 17.6882C11.845 17.9484 11.9515 18.252 12.2082 18.3773C12.2421 18.3917 12.276 18.4062 12.3099 18.4255C13.3268 18.9459 13.719 20.1843 13.196 21.1962C12.6731 22.2081 11.4237 22.5984 10.4116 22.078C10.1502 21.9527 9.84508 22.0587 9.71917 22.3141C9.59327 22.5743 9.6998 22.8779 9.95645 23.0032Z" fill="#FFB548"/>
</svg>
