<svg width="31" height="31" viewBox="0 0 31 31" fill="none" xmlns="http://www.w3.org/2000/svg">
<path d="M9.92733 2.72812C11.5116 3.34999 13.043 4.17134 14.4864 5.17455C14.6507 5.28601 14.8384 5.34468 15.0262 5.34468C15.2139 5.34468 15.4017 5.28601 15.566 5.17455C17.0094 4.17134 18.5408 3.34413 20.1251 2.72225C20.483 2.58145 20.7235 2.22945 20.7177 1.84225C20.7177 1.45504 20.4771 1.1089 20.1133 0.97397C16.9449 -0.228709 13.1075 -0.228709 9.94493 0.97397C9.58701 1.1089 9.34058 1.46091 9.34058 1.84225C9.34058 2.22358 9.56354 2.58732 9.92733 2.72812Z" fill="#FFB548"/>
<path d="M23.5347 2.73346C23.2354 2.52813 22.854 2.51053 22.5313 2.6924C20.7769 3.70147 19.0812 4.85722 17.4794 6.13029C17.2681 6.30043 17.1391 6.5527 17.1273 6.82257C17.1156 7.09244 17.2212 7.35644 17.4148 7.54417C20.7358 10.7063 25.336 20.404 26.3921 24.8627C24.1038 20.9907 18.9991 11.8797 15.6604 8.76445C15.3025 8.43005 14.7392 8.43005 14.3813 8.76445C11.0368 11.8797 5.94967 20.9966 3.66134 24.8745C4.71749 20.4158 9.3059 10.7063 12.6269 7.54417C12.8264 7.35644 12.932 7.09244 12.9203 6.82257C12.9086 6.5527 12.7795 6.30043 12.5682 6.13029C10.9664 4.85722 9.26483 3.70147 7.5163 2.6924C7.20533 2.51053 6.8122 2.52813 6.51296 2.73346C2.43502 5.54362 0 10.1607 0 15.0888C0 18.6909 1.29672 22.164 3.66134 24.8745C6.48949 28.195 10.6261 30.1076 15.0209 30.1076C19.4157 30.1076 23.5581 28.2009 26.3921 24.8686C28.745 22.1699 30.0417 18.6968 30.0417 15.0888C30.0417 10.1607 27.6067 5.54362 23.5347 2.73346Z" fill="#FFB548"/>
</svg>
