<svg width="22" height="23" viewBox="0 0 22 23" fill="none" xmlns="http://www.w3.org/2000/svg">
<path d="M22 11.6774C21.9998 9.57534 21.3972 7.51732 20.2636 5.74704C19.1302 3.97676 17.513 2.56833 15.6039 1.68853C13.6948 0.808713 11.5736 0.494358 9.49131 0.782672C7.40908 1.07098 5.45305 1.94989 3.85481 3.31533C2.25656 4.68078 1.08303 6.47559 0.473145 8.48727C-0.13674 10.4989 -0.15744 12.6432 0.413497 14.6663C0.984435 16.6894 2.1231 18.5066 3.69469 19.9025C5.26627 21.2986 7.20497 22.2152 9.28126 22.5436V14.8574H6.48817V11.6774H9.28126V9.25377C9.28126 6.49736 10.9239 4.97386 13.4356 4.97386C14.2607 4.98569 15.0839 5.05738 15.8987 5.18836V7.89619H14.5109C14.0931 7.84073 13.6703 7.95346 13.3357 8.20958C13.001 8.46571 12.7818 8.84427 12.7261 9.26203C12.7103 9.37901 12.7079 9.4974 12.7188 9.61494V11.6774H15.7667L15.279 14.8574H12.7123V22.5436C15.301 22.1357 17.6591 20.8169 19.3617 18.8248C21.0645 16.8326 22.0001 14.2981 22 11.6774Z" fill="white"/>
</svg>
