<svg width="23" height="24" viewBox="0 0 23 24" fill="none" xmlns="http://www.w3.org/2000/svg">
<path fill-rule="evenodd" clip-rule="evenodd" d="M6.96554 0.0611025C8.13888 -2.6077e-08 8.51777 0 11.5 0C14.4822 0 14.8611 -2.6077e-08 16.0467 0.0611025C16.9573 0.0807693 17.8582 0.2543 18.7111 0.574364C20.1829 1.1567 21.3411 2.33244 21.9011 3.81279C22.2212 4.66552 22.3948 5.56625 22.4144 6.47685C22.4756 7.65002 22.4756 8.02886 22.4756 11.0106C22.4756 12.8286 22.4528 13.6609 22.4351 14.3105C22.4237 14.7264 22.4144 15.0674 22.4144 15.5445C22.3948 16.455 22.2212 17.3558 21.9011 18.2085C21.3298 19.6845 20.1629 20.8513 18.6867 21.4225C17.8338 21.7426 16.9329 21.9161 16.0222 21.9358C14.8489 21.9968 14.47 21.9968 11.4881 21.9968C9.66988 21.9968 8.83721 21.9742 8.18746 21.9565C7.7715 21.9451 7.43038 21.9358 6.95332 21.9358C6.04259 21.9161 5.14174 21.7426 4.28889 21.4225C2.81022 20.8487 1.64279 19.6769 1.07444 18.1963C0.75434 17.3436 0.580781 16.4428 0.561111 15.5322C0.5 14.359 0.5 13.9803 0.5 10.9984C0.5 8.01663 0.5 7.63781 0.561111 6.45241C0.580781 5.54181 0.75434 4.64109 1.07444 3.78834C1.64841 2.30989 2.82027 1.14264 4.30111 0.574364C5.15397 0.2543 6.05482 0.0807693 6.96554 0.0611025ZM15.9496 2.04244C14.7885 1.98134 14.4341 1.98134 11.5007 1.98134V2.00578C9.69127 2.00578 8.86423 2.02883 8.22625 2.04663C7.82571 2.05779 7.49969 2.06688 7.05187 2.06688C6.35487 2.07584 5.66454 2.20396 5.01076 2.44572C4.06586 2.81835 3.31791 3.5662 2.9452 4.51097C2.70342 5.16466 2.57528 5.85489 2.56631 6.55179C2.5052 7.71274 2.5052 8.05491 2.5052 11C2.5052 12.8092 2.52827 13.6362 2.54606 14.2741C2.55723 14.6746 2.56631 15.0006 2.56631 15.4483C2.57528 16.1452 2.70342 16.8354 2.9452 17.4891C3.31791 18.4339 4.06586 19.1817 5.01076 19.5543C5.66454 19.7961 6.35487 19.9243 7.05187 19.9332C8.21298 19.9943 8.55519 19.9943 11.5007 19.9943C13.3102 19.9943 14.1373 19.9712 14.7752 19.9535C15.1758 19.9423 15.5018 19.9332 15.9496 19.9332C16.6467 19.9243 17.337 19.7961 17.9907 19.5543C18.9356 19.1817 19.6836 18.4339 20.0563 17.4891C20.298 16.8354 20.4263 16.1452 20.4352 15.4483C20.4963 14.2874 20.4963 13.9452 20.4963 11C20.4963 9.19082 20.4732 8.36389 20.4555 7.72601C20.4442 7.32553 20.4352 6.99956 20.4352 6.55179C20.4263 5.85489 20.298 5.16466 20.0563 4.51097C19.6836 3.5662 18.9356 2.81835 17.9907 2.44572C17.3384 2.19563 16.648 2.05922 15.9496 2.04244Z" fill="white"/>
<path fill-rule="evenodd" clip-rule="evenodd" d="M5.85205 10.9974C5.85205 7.8793 8.38015 5.35156 11.4987 5.35156C12.9963 5.35156 14.4325 5.94639 15.4915 7.0052C16.5504 8.064 17.1454 9.50005 17.1454 10.9974C17.1454 14.1155 14.6173 16.6433 11.4987 16.6433C8.38015 16.6433 5.85205 14.1155 5.85205 10.9974ZM7.83338 10.9984C7.83338 13.0234 9.47501 14.665 11.5 14.665C12.4725 14.665 13.4051 14.2788 14.0927 13.591C14.7804 12.9034 15.1667 11.9709 15.1667 10.9984C15.1667 8.97334 13.5251 7.33171 11.5 7.33171C9.47501 7.33171 7.83338 8.97334 7.83338 10.9984Z" fill="white"/>
<path fill-rule="evenodd" clip-rule="evenodd" d="M17.102 5.48961C17.8309 5.48961 18.422 4.89863 18.422 4.16961C18.422 3.44059 17.8309 2.84961 17.102 2.84961C16.3729 2.84961 15.782 3.44059 15.782 4.16961C15.782 4.89863 16.3729 5.48961 17.102 5.48961Z" fill="white"/>
</svg>
