<svg width="17" height="21" viewBox="0 0 17 21" fill="none" xmlns="http://www.w3.org/2000/svg">
<path d="M6.78801 8.10344V11.4814C6.37969 11.3693 5.95244 11.354 5.5377 11.4366C5.12295 11.5192 4.73132 11.6977 4.39164 11.9589C4.05196 12.22 3.7729 12.5572 3.57502 12.9456C3.37713 13.3339 3.26548 13.7635 3.24829 14.2028C3.22506 14.5809 3.27984 14.9599 3.40897 15.3142C3.53808 15.6686 3.73857 15.9899 3.99692 16.257C4.25527 16.524 4.56552 16.7303 4.90681 16.862C5.2481 16.9939 5.61254 17.0481 5.97564 17.0212C7.99092 17.0212 8.70297 15.5472 8.70297 14.1647V0.784424H11.9111C12.4568 4.31772 14.153 5.13763 16.4266 5.51658V8.90186C16.4266 8.90186 13.7294 8.70225 12.002 7.34619V14.0338C12.0002 17.0599 10.277 20.4378 5.99983 20.4378C2.03062 20.4378 0 16.9369 0 14.0026C0.025322 13.1331 0.227381 12.2791 0.592878 11.497C0.958364 10.7148 1.47899 10.0221 2.1204 9.4647C2.76182 8.90728 3.50946 8.49773 4.31401 8.2631C5.11859 8.02846 5.96177 7.97405 6.78801 8.10344Z" fill="white"/>
</svg>
