<svg width="22" height="15" viewBox="0 0 22 15" fill="none" xmlns="http://www.w3.org/2000/svg">
<path fill-rule="evenodd" clip-rule="evenodd" d="M20.9 1.37865C21.368 1.97882 21.6713 2.69068 21.78 3.44391C21.9168 4.56316 21.9902 5.68924 22 6.81677V8.3932C21.9907 9.52481 21.9173 10.655 21.78 11.7783C21.6713 12.5315 21.368 13.2434 20.9 13.8435C20.3042 14.4042 19.5182 14.7185 18.7 14.7234C15.62 14.9434 11 14.9434 11 14.9434C11 14.9434 5.28 14.9434 3.54444 14.7356C2.65077 14.731 1.78656 14.4155 1.1 13.8435C0.630057 13.2399 0.326634 12.5235 0.22 11.7661C0.0831521 10.6468 0.00970151 9.52074 0 8.3932V6.81677C0.00924018 5.68516 0.0826915 4.55499 0.22 3.43169C0.328686 2.67846 0.632005 1.96661 1.1 1.36643C1.69586 0.805831 2.48184 0.491488 3.3 0.486562C6.38 0.278809 11 0.278809 11 0.278809C11 0.278809 15.62 0.278809 18.7 0.498772C19.5182 0.50371 20.3042 0.818053 20.9 1.37865ZM15.8889 7.61214L8.55556 3.94548V11.2788L15.8889 7.61214Z" fill="white"/>
</svg>
