<svg width="43" height="40" viewBox="0 0 43 40" fill="none" xmlns="http://www.w3.org/2000/svg">
<g clip-path="url(#clip0_19_115)">
<path d="M40.0016 6.62508H29.335V4.04175C29.335 3.31953 29.1614 2.65286 28.8141 2.04175C28.4669 1.43064 27.9808 0.944526 27.3558 0.583415C26.7308 0.222304 26.0572 0.041748 25.335 0.041748H17.335C16.2239 0.041748 15.2794 0.437581 14.5016 1.22925C13.7239 2.02091 13.335 2.95841 13.335 4.04175V6.62508H2.66831C1.94609 6.62508 1.32109 6.88897 0.793315 7.41675C0.265537 7.94453 0.00164795 8.56953 0.00164795 9.29175V37.2917C0.00164795 38.014 0.265537 38.639 0.793315 39.1667C1.32109 39.6945 1.94609 39.9584 2.66831 39.9584H40.0016C40.7239 39.9584 41.3489 39.6945 41.8766 39.1667C42.4044 38.639 42.6683 38.014 42.6683 37.2917V9.29175C42.6683 8.81953 42.5503 8.38203 42.3141 7.97925C42.078 7.57647 41.7516 7.25008 41.335 7.00008C40.9183 6.75008 40.4739 6.62508 40.0016 6.62508ZM16.0016 4.04175C16.0016 3.68064 16.1336 3.36814 16.3975 3.10425C16.6614 2.84036 16.9739 2.70841 17.335 2.70841H25.335C25.7239 2.70841 26.0433 2.84036 26.2933 3.10425C26.5433 3.36814 26.6683 3.68064 26.6683 4.04175V6.62508H16.0016V4.04175ZM2.66831 9.29175H40.0016V18.6667H25.335V17.2917C25.335 16.8195 25.21 16.3751 24.96 15.9584C24.71 15.5417 24.3836 15.2154 23.9808 14.9792C23.578 14.7431 23.1405 14.6251 22.6683 14.6251H20.0016C19.2516 14.6251 18.6197 14.889 18.1058 15.4167C17.5919 15.9445 17.335 16.5695 17.335 17.2917V18.6667H2.66831V9.29175ZM22.6683 24.0001H20.0016V17.2917H22.6683V24.0001ZM2.66831 37.2917V21.3334H17.335V24.0001C17.335 24.7501 17.5919 25.382 18.1058 25.8959C18.6197 26.4098 19.2516 26.6667 20.0016 26.6667H22.6683C23.1405 26.6667 23.578 26.5487 23.9808 26.3126C24.3836 26.0765 24.71 25.7501 24.96 25.3334C25.21 24.9167 25.335 24.4723 25.335 24.0001V21.3334H40.0016V37.2917H2.66831Z" fill="#49C0FC"/>
</g>
<defs>
<clipPath id="clip0_19_115">
<rect width="42.67" height="40" fill="white"/>
</clipPath>
</defs>
</svg>
