<svg width="40" height="40" viewBox="0 0 40 40" fill="none" xmlns="http://www.w3.org/2000/svg">
<g clip-path="url(#clip0_19_111)">
<path d="M32.5391 16.25C32.2005 16.25 31.3542 16.237 30 16.2109V13.7109C30 13.0339 29.7591 12.4479 29.2773 11.9531C28.7956 11.4583 28.2031 11.2109 27.5 11.2109H2.5C1.79688 11.2109 1.20443 11.4583 0.722656 11.9531C0.240885 12.4479 0 13.0339 0 13.7109V32.5C0 34.5833 0.729167 36.3542 2.1875 37.8125C3.64583 39.2708 5.41667 40 7.5 40H22.5391C24.5964 40 26.3542 39.2708 27.8125 37.8125C29.2708 36.3542 30 34.5833 30 32.5V31.2109C30.5469 31.237 31.0742 31.25 31.582 31.25H32.5391C34.5964 31.25 36.3542 30.5208 37.8125 29.0625C39.2708 27.6042 40 25.8464 40 23.7891C40 21.4714 39.1146 19.5573 37.3438 18.0469C35.9375 16.849 34.3359 16.25 32.5391 16.25ZM27.5 32.5C27.5 33.4115 27.2786 34.2513 26.8359 35.0195C26.3932 35.7878 25.7878 36.3932 25.0195 36.8359C24.2513 37.2786 23.4245 37.5 22.5391 37.5H7.5C6.11979 37.5 4.94141 37.0117 3.96484 36.0352C2.98828 35.0586 2.5 33.8802 2.5 32.5V13.7109H27.5V32.5ZM32.5391 28.7891C32.2786 28.7891 31.4323 28.776 30 28.75V18.75H32.5391C33.9453 18.75 35.1302 19.2253 36.0938 20.1758C37.0573 21.1263 37.5391 22.3177 37.5391 23.75C37.5391 25.1823 37.0573 26.3802 36.0938 27.3438C35.1302 28.3073 33.9453 28.7891 32.5391 28.7891ZM22.5 8.75C22.8385 8.75 23.1315 8.6263 23.3789 8.37891C23.6263 8.13151 23.75 7.83854 23.75 7.5V1.25C23.75 0.911458 23.6263 0.61849 23.3789 0.371094C23.1315 0.123698 22.8385 0 22.5 0C22.1615 0 21.8685 0.123698 21.6211 0.371094C21.3737 0.61849 21.25 0.911458 21.25 1.25V7.5C21.25 7.83854 21.3737 8.13151 21.6211 8.37891C21.8685 8.6263 22.1615 8.75 22.5 8.75ZM7.5 8.75C7.83854 8.75 8.13151 8.6263 8.37891 8.37891C8.6263 8.13151 8.75 7.83854 8.75 7.5V1.25C8.75 0.911458 8.6263 0.61849 8.37891 0.371094C8.13151 0.123698 7.83854 0 7.5 0C7.16146 0 6.86849 0.123698 6.62109 0.371094C6.3737 0.61849 6.25 0.911458 6.25 1.25V7.5C6.25 7.83854 6.3737 8.13151 6.62109 8.37891C6.86849 8.6263 7.16146 8.75 7.5 8.75ZM15 8.75C15.3385 8.75 15.6315 8.6263 15.8789 8.37891C16.1263 8.13151 16.25 7.83854 16.25 7.5V1.25C16.25 0.911458 16.1263 0.61849 15.8789 0.371094C15.6315 0.123698 15.3385 0 15 0C14.6615 0 14.3685 0.123698 14.1211 0.371094C13.8737 0.61849 13.75 0.911458 13.75 1.25V7.5C13.75 7.83854 13.8737 8.13151 14.1211 8.37891C14.3685 8.6263 14.6615 8.75 15 8.75Z" fill="#49C0FC"/>
</g>
<defs>
<clipPath id="clip0_19_111">
<rect width="40" height="40" fill="white"/>
</clipPath>
</defs>
</svg>
