<svg width="40" height="40" viewBox="0 0 40 40" fill="none" xmlns="http://www.w3.org/2000/svg">
<g clip-path="url(#clip0_19_113)">
<path d="M39.8047 11.5234L34.3359 1.09375C34.1797 0.78125 33.9193 0.520833 33.5547 0.3125C33.1901 0.104167 32.8385 0 32.5 0H7.5C7.16145 0 6.80989 0.104167 6.44531 0.3125C6.08072 0.520833 5.82031 0.78125 5.66406 1.09375L0.195308 11.3281C0.0390581 11.6406 -0.026046 12.0052 -4.35952e-06 12.4219C0.0260373 12.8385 0.143225 13.1771 0.351558 13.4375L19.1016 39.6094C19.3099 39.8698 19.5573 40 19.8437 40C19.974 40 20.1042 39.9674 20.2344 39.9023C20.3646 39.8372 20.4818 39.7396 20.5859 39.6094L39.6484 13.6719C40.0651 13.0729 40.1432 12.4219 39.8828 11.7188C39.8568 11.6406 39.8307 11.5755 39.8047 11.5234ZM36.7969 11.25H30.1172L32.8125 3.55469L36.7969 11.25ZM22.4609 2.5H30.5078L28.0078 9.64844L22.4609 2.5ZM26.0937 11.25H14.4922L19.9609 3.35938L26.0937 11.25ZM12.2656 10.0391L9.76562 2.5H17.5391L12.2656 10.0391ZM26.6016 13.75L19.8828 32.9688L13.4766 13.75H26.6016ZM17.0703 32.4609L3.63281 13.75H10.8594L17.0703 32.4609ZM29.2578 13.75H36.4844L22.6953 32.5L29.2578 13.75ZM7.34375 3.20312L10.0391 11.25H3.08593L7.34375 3.20312Z" fill="#49C0FC"/>
</g>
<defs>
<clipPath id="clip0_19_113">
<rect width="40" height="40" fill="white"/>
</clipPath>
</defs>
</svg>
