<svg width="40" height="38" viewBox="0 0 40 38" fill="none" xmlns="http://www.w3.org/2000/svg">
<g clip-path="url(#clip0_19_144)">
<path d="M39.2279 22.5625C39.2279 20.8004 39.1513 19.2171 38.9981 17.8125C38.6405 14.5437 37.568 11.5941 35.7803 8.9637C33.9927 6.33332 31.6943 4.27754 28.8852 2.79636C26.076 1.31518 23.0243 0.574585 19.7299 0.574585C16.2823 0.574585 13.1029 1.39179 10.1916 3.0262C7.28032 4.66061 4.93085 6.9143 3.14322 9.78729C1.35559 12.6603 0.372386 15.8461 0.193623 19.3447C0.142547 20.5961 0.104241 21.5538 0.0787034 22.2177V22.7923C0.0787034 22.8689 0.0723189 22.9456 0.0595501 23.0222L0.0212437 23.252L0.00209045 23.4818V34.1693C0.00209045 35.0632 0.321311 35.8293 0.959752 36.4677C1.59819 37.1062 2.36432 37.4254 3.25814 37.4254H6.55249C7.47185 37.4254 8.24436 37.1062 8.87003 36.4677C9.49571 35.8293 9.80854 35.0632 9.80854 34.1693V23.4818C9.80854 22.8945 9.66809 22.3518 9.38717 21.8538C9.10626 21.3558 8.71681 20.96 8.21882 20.6663C7.72084 20.3726 7.1654 20.2258 6.55249 20.2258H3.25814C3.15599 20.2258 3.04745 20.2322 2.93253 20.2449C2.81761 20.2577 2.70908 20.2769 2.60693 20.3024C2.60693 20.1492 2.61331 19.9768 2.62608 19.7853L2.64524 19.498C2.77292 17.174 3.30921 14.997 4.25411 12.9667C5.199 10.9365 6.42481 9.19354 7.93153 7.73789C9.43825 6.28225 11.2195 5.13305 13.2753 4.29031C15.3311 3.44757 17.4826 3.0262 19.7299 3.0262C21.9006 3.0262 23.9628 3.40926 25.9164 4.17539C27.87 4.94152 29.5874 5.98218 31.0686 7.29737C32.5498 8.61256 33.7756 10.2023 34.746 12.0665C35.7165 13.9308 36.3166 15.9355 36.5464 18.0806C36.5975 18.4382 36.6486 19.1788 36.6997 20.3024C36.6231 20.3024 36.5464 20.296 36.4698 20.2833C36.3932 20.2705 36.3102 20.2577 36.2208 20.2449C36.1315 20.2322 36.0485 20.2258 35.9718 20.2258H32.7158C31.7964 20.2258 31.0239 20.545 30.3983 21.1835C29.7726 21.8219 29.4598 22.588 29.4598 23.4818V34.131C29.4598 34.4886 29.5108 34.8269 29.613 35.1462C29.7151 35.4654 29.8684 35.7591 30.0727 36.0272C30.277 36.2954 30.5132 36.5316 30.7813 36.7359C31.0495 36.9402 31.3495 37.0998 31.6815 37.2147C32.0135 37.3296 32.3583 37.3871 32.7158 37.3871H35.9718C36.8657 37.3871 37.6318 37.0679 38.2702 36.4294C38.9087 35.791 39.2279 35.0249 39.2279 34.131V23.4818C39.2279 23.3031 39.2024 23.1115 39.1513 22.9072C39.2024 22.7796 39.2279 22.6646 39.2279 22.5625ZM3.25814 22.6774H6.55249C6.70572 22.6774 6.84618 22.7157 6.97386 22.7923C7.10155 22.8689 7.19732 22.9647 7.26116 23.0796C7.32501 23.1945 7.35693 23.3286 7.35693 23.4818V34.1693C7.35693 34.3736 7.28032 34.5588 7.12709 34.7248C6.97386 34.8908 6.78233 34.9738 6.55249 34.9738H3.25814C3.10491 34.9738 2.97084 34.9355 2.85592 34.8589C2.741 34.7822 2.64524 34.6801 2.56862 34.5524C2.49201 34.4247 2.4537 34.297 2.4537 34.1693V23.4818C2.4537 23.252 2.53032 23.0605 2.68354 22.9072C2.83677 22.754 3.0283 22.6774 3.25814 22.6774ZM36.7763 34.131C36.7763 34.3353 36.6997 34.5205 36.5464 34.6865C36.3932 34.8525 36.2017 34.9355 35.9718 34.9355H32.7158C32.6392 34.9355 32.569 34.9291 32.5051 34.9163C32.4413 34.9035 32.3838 34.878 32.3327 34.8397C32.2817 34.8014 32.237 34.7695 32.1987 34.7439C32.1604 34.7184 32.1221 34.6801 32.0837 34.629C32.0454 34.5779 32.0135 34.5269 31.988 34.4758C31.9624 34.4247 31.9433 34.3673 31.9305 34.3034C31.9177 34.2396 31.9114 34.1821 31.9114 34.131V23.4818C31.9114 23.252 31.988 23.0605 32.1412 22.9072C32.2944 22.754 32.486 22.6774 32.7158 22.6774H35.9718C36.2017 22.6774 36.3932 22.754 36.5464 22.9072C36.6997 23.0605 36.7763 23.252 36.7763 23.4818V34.131Z" fill="#49C0FC"/>
</g>
<defs>
<clipPath id="clip0_19_144">
<rect width="39.23" height="38" fill="white"/>
</clipPath>
</defs>
</svg>
