<svg width="41" height="38" viewBox="0 0 41 38" fill="none" xmlns="http://www.w3.org/2000/svg">
<g clip-path="url(#clip0_5_80)">
<path d="M16.8262 25.6104C19.861 25.6104 22.6054 25.076 25.0596 24.0073C27.5137 22.9385 29.4467 21.4146 30.8585 19.4354C32.2703 17.4562 32.963 15.2 32.9367 12.6666C32.9367 11.8222 32.8245 10.991 32.6002 10.1729C32.3759 9.35485 32.0592 8.57637 31.6502 7.83748C31.2412 7.09859 30.7398 6.39929 30.146 5.73957C29.5523 5.07984 28.8926 4.4729 28.1669 3.91873C27.4412 3.36457 26.6363 2.86318 25.7523 2.41457C24.8683 1.96596 23.938 1.58991 22.9617 1.28644C21.9853 0.98297 20.9561 0.74547 19.8742 0.573942C18.7922 0.402414 17.6839 0.31665 16.5492 0.31665C13.5408 0.31665 10.77 0.86422 8.23666 1.95936C5.70333 3.0545 3.69777 4.55207 2.21999 6.45207C0.742215 8.35207 0.00332642 10.4236 0.00332642 12.6666C0.00332642 14.9097 0.557493 17.0472 1.66583 19.0791C2.77416 21.1111 4.37069 22.6548 6.45541 23.7104V23.7896C6.45541 24.9507 5.72972 26.7715 4.27833 29.2521H4.31791C4.26513 29.3576 4.23874 29.4764 4.23874 29.6083C4.23874 29.6875 4.24534 29.7601 4.25853 29.826C4.27173 29.892 4.29152 29.958 4.31791 30.0239C4.3443 30.0899 4.37728 30.1493 4.41687 30.2021C4.45645 30.2548 4.50263 30.301 4.55541 30.3406C4.60819 30.3802 4.66756 30.4132 4.73353 30.4396L4.93145 30.5187L5.14916 30.5583C5.17555 30.5583 5.22173 30.5517 5.2877 30.5385L5.38666 30.5187H5.42624C6.16513 30.4132 7.02937 30.1295 8.01895 29.6677C9.00853 29.2059 9.91895 28.6979 10.7502 28.1437C11.5815 27.5896 12.3071 27.0684 12.9273 26.5802C13.5474 26.092 13.9499 25.7292 14.1346 25.4916C14.3193 25.518 14.4908 25.5444 14.6492 25.5708C14.8075 25.5972 14.9592 25.6104 15.1044 25.6104H16.8262ZM13.1054 22.8792L11.4825 24.225C11.2714 24.4889 10.8096 24.9045 10.0971 25.4719C9.38458 26.0392 8.69847 26.5208 8.03874 26.9167C8.30263 26.2041 8.50055 25.5774 8.63249 25.0364C8.76444 24.4955 8.8436 24.1458 8.86999 23.9875V23.7104L8.98874 22.1667L7.60333 21.4541C5.94083 20.6097 4.68076 19.376 3.82312 17.7531C2.96548 16.1302 2.53666 14.4347 2.53666 12.6666C2.53666 10.8722 3.1634 9.2229 4.41687 7.71873C5.67034 6.21457 7.37242 5.02707 9.52312 4.15623C11.6738 3.2854 14.0158 2.84998 16.5492 2.84998C19.0825 2.84998 21.4113 3.2854 23.5356 4.15623C25.6599 5.02707 27.3356 6.21457 28.5627 7.71873C29.7898 9.2229 30.4033 10.8722 30.4033 12.6666C30.4033 14.1444 30.0603 15.5364 29.3742 16.8427C28.688 18.1489 27.7512 19.2573 26.5637 20.1677C25.3762 21.0781 23.9446 21.7972 22.269 22.325C20.5933 22.8528 18.8054 23.1166 16.9054 23.1166C16.1137 23.143 15.3089 23.1035 14.4908 22.9979L13.1054 22.8792ZM40.5367 22.8792C40.5367 19.3694 38.9797 16.7041 35.8658 14.8833C35.7867 15.6486 35.5756 16.559 35.2325 17.6146C36.288 18.3535 37.0137 19.1253 37.4096 19.9302C37.8054 20.7351 38.0033 21.718 38.0033 22.8792C38.0033 23.5653 37.9242 24.2052 37.7658 24.7989C37.6075 25.3927 37.3568 25.9469 37.0137 26.4614C36.6707 26.976 36.2287 27.451 35.6877 27.8864C35.1467 28.3219 34.5068 28.7375 33.7679 29.1333L32.5408 29.7271C32.62 31.891 32.7255 33.25 32.8575 33.8041C32.3825 33.4611 31.9471 33.118 31.5512 32.775C31.1554 32.4319 30.8387 32.1285 30.6012 31.8646C30.3637 31.6007 30.1592 31.3632 29.9877 31.1521C29.8162 30.941 29.6908 30.7694 29.6117 30.6375L29.5325 30.4792L28.1867 30.6771C28.0283 30.7035 27.7908 30.7232 27.4742 30.7364C27.1575 30.7496 26.8672 30.7562 26.6033 30.7562H26.2471C22.9485 30.7562 20.2304 29.925 18.0929 28.2625H14.4908L14.4512 28.3021C14.9526 28.909 15.52 29.4698 16.1533 29.9844C16.7867 30.4989 17.4728 30.9607 18.2117 31.3698C18.9505 31.7788 19.7422 32.1285 20.5867 32.4187C21.4311 32.709 22.3283 32.9267 23.2783 33.0719C24.2283 33.217 25.2179 33.2896 26.2471 33.2896H26.9992C27.5533 33.2896 28.0679 33.2632 28.5429 33.2104C29.1235 33.8701 30.113 34.7278 31.5117 35.7833C32.9103 36.8389 34.2033 37.4722 35.3908 37.6833H35.6283C35.8658 37.6833 36.0637 37.6041 36.2221 37.4458C36.3804 37.2875 36.4596 37.0896 36.4596 36.8521C36.4596 36.7465 36.4332 36.641 36.3804 36.5354C36.2485 36.3243 36.1033 36.0076 35.945 35.5854C35.7867 35.1632 35.6415 34.7146 35.5096 34.2396C35.3776 33.7646 35.2655 33.2698 35.1731 32.7552C35.0808 32.2406 35.0346 31.7854 35.0346 31.3896V31.3104C38.7026 29.4104 40.5367 26.6 40.5367 22.8792Z" fill="#49C0FC"/>
</g>
<defs>
<clipPath id="clip0_5_80">
<rect width="40.54" height="38" fill="white"/>
</clipPath>
</defs>
</svg>
