<svg width="38" height="38" viewBox="0 0 38 38" fill="none" xmlns="http://www.w3.org/2000/svg">
<g clip-path="url(#clip0_19_142)">
<path d="M35.1523 7.89228V7.92882L35.1158 7.96536C33.0209 9.42689 30.5972 11.0346 27.8446 12.7884C27.6497 12.8128 27.394 12.7397 27.0773 12.5692C26.6388 12.35 25.5549 11.741 23.8254 10.7423L22.5465 10.0115L21.3408 10.8519C19.7087 11.9968 17.7478 13.7141 15.4581 16.0038C13.1683 18.2936 11.4632 20.2423 10.3427 21.85L9.46577 23.0557L10.1965 24.3711C11.1953 26.1006 11.8042 27.1846 12.0235 27.623C12.1209 27.7936 12.1879 27.9397 12.2244 28.0615C12.261 28.1833 12.2792 28.2807 12.2792 28.3538V28.3904C11.0613 30.3147 9.44141 32.7506 7.41961 35.6981C7.2491 35.7224 7.06641 35.6615 6.87154 35.5154C5.84846 34.7846 4.88019 33.9686 3.96673 33.0673C3.05327 32.166 2.51128 31.5083 2.34077 31.0942C2.46256 28.9019 3.45519 26.3138 5.31865 23.3298C7.18211 20.3458 9.81897 17.1487 13.2292 13.7384C14.9344 12.0577 16.5908 10.5535 18.1985 9.22593C19.8062 7.89837 21.3408 6.77177 22.8023 5.84612C24.2638 4.92048 25.6523 4.20798 26.9677 3.70862C28.2831 3.20927 29.4767 2.93523 30.5485 2.88651C30.9626 3.03266 31.6203 3.56247 32.5215 4.47593C33.4228 5.38939 34.2388 6.35766 34.9696 7.38074C35.0671 7.55125 35.1279 7.72177 35.1523 7.89228ZM37.4177 7.89228C37.4177 7.74612 37.4055 7.61215 37.3812 7.49036L37.3081 7.12497L37.1985 6.75959L37.034 6.3942L36.8331 6.02882C36.7356 5.88266 36.5834 5.67561 36.3763 5.40766C36.1693 5.13971 35.8039 4.69516 35.2802 4.07401C34.7565 3.45286 34.2449 2.89869 33.7456 2.41151C33.2462 1.92433 32.7042 1.48587 32.1196 1.09612C31.535 0.706381 31.0235 0.523689 30.585 0.548048C29.0747 0.596766 27.4549 0.97433 25.7254 1.68074C23.9959 2.38715 22.2847 3.33106 20.5917 4.51247C18.8988 5.69388 17.3337 6.89356 15.8965 8.11151C14.4594 9.32946 13.0222 10.657 11.585 12.0942C10.1478 13.5314 8.81416 14.9686 7.58404 16.4057C6.35391 17.8429 5.14814 19.408 3.96673 21.1009C2.78532 22.7939 1.84141 24.5112 1.135 26.2529C0.428586 27.9945 0.051022 29.6327 0.00230408 31.1673V31.2038C0.00230408 31.6179 0.197176 32.1173 0.586919 32.7019C0.976663 33.2865 1.42121 33.8285 1.92057 34.3279C2.41993 34.8272 2.96801 35.3388 3.5648 35.8625C4.1616 36.3862 4.60615 36.7577 4.89846 36.9769L5.48307 37.4154C6.26256 37.9025 6.99942 38.1035 7.69365 38.0182C8.38788 37.933 8.90551 37.6346 9.24654 37.1231C9.31961 37.05 9.48404 36.8186 9.7398 36.4288C9.99557 36.0391 10.294 35.5884 10.635 35.0769C10.976 34.5654 11.3475 34.0112 11.7494 33.4144C12.1513 32.8176 12.5228 32.2513 12.8638 31.7154C13.2049 31.1795 13.5094 30.7106 13.7773 30.3086C14.0453 29.9067 14.2158 29.6448 14.2888 29.5231C14.3863 29.3769 14.4654 29.2003 14.5263 28.9932C14.5872 28.7862 14.6177 28.573 14.6177 28.3538C14.6177 28.2077 14.6055 28.0615 14.5812 27.9154C14.5568 27.7692 14.5203 27.617 14.4715 27.4586C14.4228 27.3003 14.368 27.142 14.3071 26.9836C14.2462 26.8253 14.1792 26.673 14.1062 26.5269C13.8626 26.0641 13.2414 24.9557 12.2427 23.2019C13.2901 21.716 14.9222 19.8647 17.1388 17.648C18.4055 16.3814 19.5017 15.3522 20.4273 14.5605C21.3529 13.7689 22.0959 13.1782 22.6562 12.7884C24.4344 13.7872 25.5427 14.4083 25.9812 14.6519C27.1991 15.2852 28.21 15.3461 29.0138 14.8346C29.4036 14.591 30.6885 13.7384 32.8687 12.2769C35.0488 10.8154 36.2728 9.98715 36.5408 9.79228C37.1254 9.37818 37.4177 8.74484 37.4177 7.89228Z" fill="#49C0FC"/>
</g>
<defs>
<clipPath id="clip0_19_142">
<rect width="37.42" height="38" fill="white"/>
</clipPath>
</defs>
</svg>
