<svg width="40px" height="40px" viewBox="0 0 42 40" fill="none" xmlns="http://www.w3.org/2000/svg">
<g clip-path="url(#clip0_19_109)">
<path d="M40.9524 10.7863C40.697 10.4234 40.3543 10.2419 39.9242 10.2419H12.5452L10.4484 3.10484C10.2602 2.45968 10.0048 1.9086 9.68226 1.45161C9.35968 0.994624 9.01694 0.672043 8.65403 0.483871C8.29113 0.295699 7.97527 0.168011 7.70645 0.100806C7.43764 0.0336022 7.16882 0 6.9 0H1.37581C1.02635 0 0.730647 0.120968 0.488712 0.362903C0.246776 0.604839 0.125809 0.913978 0.125809 1.29032C0.125809 1.50538 0.179572 1.71371 0.287099 1.91532C0.394626 2.11694 0.549196 2.27151 0.750809 2.37903C0.952422 2.48656 1.16075 2.54032 1.37581 2.54032H6.9C7.00753 2.54032 7.10834 2.55376 7.20242 2.58065C7.29651 2.60753 7.4242 2.72177 7.58549 2.92339C7.74678 3.125 7.88119 3.42742 7.98871 3.83065L15.1258 30.0403C15.1796 30.2016 15.2669 30.3562 15.3879 30.504C15.5089 30.6519 15.65 30.7661 15.8113 30.8468C15.9726 30.9274 16.1473 30.9677 16.3355 30.9677H33.7548C34.0237 30.9677 34.2723 30.8871 34.5008 30.7258C34.7293 30.5645 34.8839 30.3629 34.9645 30.121L41.1339 11.9758C41.2683 11.5457 41.2078 11.1492 40.9524 10.7863ZM32.8677 28.3871H17.3435L13.2306 12.8226H38.0694L32.8677 28.3871ZM30.3274 33.5484C29.4403 33.5484 28.6809 33.8642 28.0492 34.496C27.4175 35.1277 27.1016 35.8871 27.1016 36.7742C27.1016 37.6613 27.4175 38.4207 28.0492 39.0524C28.6809 39.6841 29.4403 40 30.3274 40C31.2145 40 31.9739 39.6841 32.6056 39.0524C33.2374 38.4207 33.5532 37.6613 33.5532 36.7742C33.5532 35.8871 33.2374 35.1277 32.6056 34.496C31.9739 33.8642 31.2145 33.5484 30.3274 33.5484ZM18.7145 33.5484C18.1231 33.5484 17.5788 33.6962 17.0815 33.9919C16.5841 34.2876 16.1944 34.6774 15.9121 35.1613C15.6298 35.6452 15.4887 36.1828 15.4887 36.7742C15.4887 37.6613 15.8046 38.4207 16.4363 39.0524C17.068 39.6841 17.8274 40 18.7145 40C19.6016 40 20.361 39.6841 20.9927 39.0524C21.6245 38.4207 21.9403 37.6613 21.9403 36.7742C21.9403 36.5591 21.9202 36.3441 21.8798 36.129C21.8395 35.914 21.779 35.7124 21.6984 35.5242C21.6177 35.336 21.5169 35.1546 21.396 34.9798C21.275 34.8051 21.1406 34.6438 20.9927 34.496C20.8449 34.3481 20.6836 34.2137 20.5089 34.0927C20.3341 33.9718 20.1527 33.871 19.9645 33.7903C19.7763 33.7097 19.5747 33.6492 19.3597 33.6089C19.1446 33.5685 18.9296 33.5484 18.7145 33.5484Z" fill="#49C0FC"/>
</g>
<defs>
<clipPath id="clip0_19_109">
<rect width="41.3" height="40" fill="white"/>
</clipPath>
</defs>
</svg>
