<svg width="35" height="38" viewBox="0 0 35 38" fill="none" xmlns="http://www.w3.org/2000/svg">
<g clip-path="url(#clip0_19_146)">
<path d="M34.1048 11.0586L27.4622 3.93359C27.2148 3.6862 26.9179 3.5625 26.5716 3.5625H16.6634L16.6263 1.11328C16.6263 1.03906 16.6201 0.958659 16.6077 0.87207C16.5953 0.785482 16.5644 0.705078 16.5149 0.630859C16.4654 0.556641 16.416 0.488607 16.3665 0.426758C16.317 0.364909 16.2552 0.309245 16.1809 0.259766C16.1067 0.210286 16.0325 0.166992 15.9583 0.129883C15.8841 0.0927734 15.8037 0.061849 15.7171 0.0371094C15.6305 0.0123698 15.5377 0 15.4388 0C15.3151 0 15.1975 0.0185547 15.0862 0.0556641C14.9749 0.0927734 14.8697 0.148438 14.7708 0.222656C14.6718 0.296875 14.5914 0.377279 14.5296 0.463867C14.4677 0.550456 14.4182 0.649414 14.3811 0.760742C14.344 0.87207 14.3255 0.989583 14.3255 1.11328L14.2884 3.5625H1.18875C0.990835 3.5625 0.799103 3.61816 0.613556 3.72949C0.428009 3.84082 0.279572 3.98307 0.168243 4.15625C0.0569153 4.32943 0.00125122 4.52734 0.00125122 4.75V19C0.00125122 19.3216 0.118764 19.5999 0.35379 19.835C0.588816 20.07 0.867137 20.1875 1.18875 20.1875H14.2884V36.8867C14.2884 37.1836 14.4059 37.4434 14.6409 37.666C14.8759 37.8887 15.1542 38 15.4759 38C15.7975 38 16.0758 37.8887 16.3108 37.666C16.5458 37.4434 16.6634 37.1836 16.6634 36.8867V20.1875H26.5716C26.7447 20.1875 26.9055 20.1566 27.054 20.0947C27.2024 20.0329 27.3385 19.9401 27.4622 19.8164L34.1048 12.6914C34.3027 12.4688 34.4078 12.1966 34.4202 11.875C34.4326 11.5534 34.3274 11.2812 34.1048 11.0586ZM26.052 17.8125H2.37625V5.9375H26.052L31.6184 11.875L26.052 17.8125Z" fill="#49C0FC"/>
</g>
<defs>
<clipPath id="clip0_19_146">
<rect width="34.44" height="38" fill="white"/>
</clipPath>
</defs>
</svg>
