<svg width="45" height="46" viewBox="0 0 45 46" fill="none" xmlns="http://www.w3.org/2000/svg">
<rect y="0.496094" width="45" height="45" rx="22.5" fill="#FCDFE1"/>
<g clip-path="url(#clip0_1_289)">
<path d="M30 12.4961C31.1046 12.4961 32 11.6007 32 10.4961C32 9.39152 31.1046 8.49609 30 8.49609C28.8954 8.49609 28 9.39152 28 10.4961C28 11.6007 28.8954 12.4961 30 12.4961Z" stroke="black" stroke-width="2" stroke-linecap="round" stroke-linejoin="round"/>
<path d="M23 15.4961L24 9.49609L28.0362 10.1173" stroke="black" stroke-width="2" stroke-linecap="round" stroke-linejoin="round"/>
<path d="M14.4262 17.7311C16.715 16.3398 19.715 15.4961 23 15.4961C26.285 15.4961 29.285 16.3398 31.5737 17.7311C31.836 17.3712 32.1752 17.0743 32.5666 16.8618C32.9579 16.6493 33.3917 16.5266 33.8364 16.5026C34.281 16.4786 34.7255 16.5539 35.1374 16.7231C35.5494 16.8922 35.9185 17.151 36.218 17.4805C36.5176 17.8101 36.74 18.2022 36.8691 18.6283C36.9982 19.0545 37.0309 19.5041 36.9646 19.9445C36.8984 20.3849 36.7349 20.805 36.4861 21.1743C36.2373 21.5437 35.9094 21.853 35.5262 22.0798C35.8378 22.8474 35.9987 23.6677 36 24.4961C36 29.4661 30.18 33.4961 23 33.4961C15.82 33.4961 9.99997 29.4661 9.99997 24.4961C10.0013 23.6677 10.1621 22.8474 10.4737 22.0798C10.0905 21.853 9.76261 21.5437 9.51381 21.1743C9.26501 20.805 9.10157 20.3849 9.03533 19.9445C8.96909 19.5041 9.00172 19.0545 9.13085 18.6283C9.25998 18.2022 9.48238 17.8101 9.7819 17.4805C10.0814 17.151 10.4506 16.8922 10.8625 16.7231C11.2745 16.5539 11.7189 16.4786 12.1636 16.5026C12.6083 16.5266 13.042 16.6493 13.4334 16.8618C13.8247 17.0743 14.1639 17.3712 14.4262 17.7311Z" stroke="black" stroke-width="2" stroke-linecap="round" stroke-linejoin="round"/>
<path d="M18 24.4961C19.1046 24.4961 20 23.6007 20 22.4961C20 21.3915 19.1046 20.4961 18 20.4961C16.8954 20.4961 16 21.3915 16 22.4961C16 23.6007 16.8954 24.4961 18 24.4961Z" fill="black"/>
<path d="M28 24.4961C29.1046 24.4961 30 23.6007 30 22.4961C30 21.3915 29.1046 20.4961 28 20.4961C26.8954 20.4961 26 21.3915 26 22.4961C26 23.6007 26.8954 24.4961 28 24.4961Z" fill="black"/>
<path d="M27 28.4961C25.7689 29.1527 24.3952 29.4961 23 29.4961C21.6048 29.4961 20.2311 29.1527 19 28.4961" stroke="black" stroke-width="2" stroke-linecap="round" stroke-linejoin="round"/>
</g>
<defs>
<clipPath id="clip0_1_289">
<rect width="32" height="32" fill="white" transform="translate(7 6.49609)"/>
</clipPath>
</defs>
</svg>
