<svg width="45" height="46" viewBox="0 0 45 46" fill="none" xmlns="http://www.w3.org/2000/svg">
<rect y="0.558594" width="45" height="45" rx="22.5" fill="#FCDFE1"/>
<g clip-path="url(#clip0_1_294)">
<path d="M28 20.3086C30.0387 21.776 32.4881 22.5633 35 22.5586V17.5586C33.1435 17.5586 31.363 16.8211 30.0503 15.5083C28.7375 14.1956 28 12.4151 28 10.5586H23V27.0586C22.9997 27.6849 22.8314 28.2996 22.5126 28.8387C22.1938 29.3778 21.7362 29.8215 21.1875 30.1234C20.6389 30.4254 20.0192 30.5746 19.3932 30.5555C18.7672 30.5364 18.1578 30.3496 17.6285 30.0148C17.0993 29.6799 16.6696 29.2091 16.3843 28.6516C16.099 28.0941 15.9685 27.4702 16.0064 26.8451C16.0444 26.2199 16.2494 25.6164 16.6 25.0975C16.9507 24.5786 17.4341 24.1633 18 23.8948V18.5586C14.0213 19.2673 11 22.8761 11 27.0586C11 29.3129 11.8955 31.4749 13.4896 33.069C15.0837 34.6631 17.2457 35.5586 19.5 35.5586C21.7543 35.5586 23.9163 34.6631 25.5104 33.069C27.1045 31.4749 28 29.3129 28 27.0586V20.3086Z" stroke="black" stroke-width="2" stroke-linecap="round" stroke-linejoin="round"/>
</g>
<defs>
<clipPath id="clip0_1_294">
<rect width="32" height="32" fill="white" transform="translate(7 7.55859)"/>
</clipPath>
</defs>
</svg>
