<svg width="45" height="46" viewBox="0 0 45 46" fill="none" xmlns="http://www.w3.org/2000/svg">
<rect y="0.621094" width="45" height="45" rx="22.5" fill="#FCDFE1"/>
<g clip-path="url(#clip0_1_290)">
<path d="M27 23.6211L21 19.6211V27.6211L27 23.6211Z" stroke="black" stroke-width="2" stroke-linecap="round" stroke-linejoin="round"/>
<path d="M10 23.6211C10 27.3598 10.3837 29.5523 10.6762 30.6798C10.7536 30.9865 10.9026 31.2705 11.111 31.5084C11.3193 31.7464 11.5812 31.9315 11.875 32.0486C16.065 33.6648 23 33.6211 23 33.6211C23 33.6211 29.935 33.6648 34.125 32.0486C34.4197 31.9321 34.6826 31.7473 34.8919 31.5093C35.1012 31.2713 35.2509 30.987 35.3288 30.6798C35.6213 29.5548 36.005 27.3598 36.005 23.6211C36.005 19.8823 35.6213 17.6898 35.3288 16.5623C35.2518 16.254 35.1024 15.9684 34.8931 15.7293C34.6838 15.4902 34.4205 15.3044 34.125 15.1873C29.935 13.5773 23 13.6211 23 13.6211C23 13.6211 16.065 13.5773 11.875 15.1936C11.5795 15.3107 11.3162 15.4964 11.1069 15.7356C10.8976 15.9747 10.7482 16.2602 10.6713 16.5686C10.3838 17.6886 10 19.8823 10 23.6211Z" stroke="black" stroke-width="2" stroke-linecap="round" stroke-linejoin="round"/>
</g>
<defs>
<clipPath id="clip0_1_290">
<rect width="32" height="32" fill="white" transform="translate(7 7.62109)"/>
</clipPath>
</defs>
</svg>
